<?xml version="1.0" standalone="no"?>
<!DOCTYPE svg PUBLIC "-//W3C//DTD SVG 1.1//EN" "http://www.w3.org/Graphics/SVG/1.1/DTD/svg11.dtd" >
<svg>
<metadata>
Created by FontForge 20120731 at Tue Oct 28 10:43:36 2014
 By Orthosie Webhosting
Copyright 1990-1999 Bitstream Inc.  All rights reserved.
</metadata>
<defs>
<font id="BauhausITCbyBT-Medium" horiz-adv-x="1024" >
  <font-face 
    font-family="Bauhaus Md BT"
    font-weight="400"
    font-stretch="normal"
    units-per-em="2048"
    panose-1="4 3 6 5 2 11 2 2 12 3"
    ascent="1556"
    descent="-492"
    x-height="981"
    cap-height="1432"
    bbox="-342 -483 2372 1972"
    underline-thickness="150"
    underline-position="-142"
    unicode-range="U+0020-F002"
  />
<missing-glyph horiz-adv-x="1229" 
d="M102 -362v1806h1024v-1806h-1024zM217 -248h795v1577h-795v-1577z" />
    <glyph glyph-name=".notdef" horiz-adv-x="1229" 
d="M102 -362v1806h1024v-1806h-1024zM217 -248h795v1577h-795v-1577z" />
    <glyph glyph-name=".null" horiz-adv-x="0" 
 />
    <glyph glyph-name="nonmarkingreturn" horiz-adv-x="557" 
 />
    <glyph glyph-name="space" unicode=" " horiz-adv-x="557" 
 />
    <glyph glyph-name="exclam" unicode="!" horiz-adv-x="557" 
d="M188 326v1106h181v-1106h-181zM160 102q0 50 34 84.5t85 34.5q50 0 84 -34.5t34 -84.5q0 -48 -34.5 -82t-83.5 -34q-50 0 -84.5 34t-34.5 82z" />
    <glyph glyph-name="quotedbl" unicode="&#x22;" horiz-adv-x="614" 
d="M524 1436v-555h-139v555h139zM229 1436v-555h-139v555h139z" />
    <glyph glyph-name="numbersign" unicode="#" horiz-adv-x="1575" 
d="M969 858h-260l-93 -264h261zM924 1458l-162 -454h256l164 454h164l-160 -454h301l-51 -146h-303l-93 -262h322l-51 -147h-322l-162 -453h-165l161 453h-258l-162 -453h-165l159 453h-309l53 147h310l92 262h-330l51 146h332l162 454h166z" />
    <glyph glyph-name="dollar" unicode="$" horiz-adv-x="1114" 
d="M627 336h10q68 0 107.5 35t39.5 96q0 56 -37 99t-120 81v-311zM481 922v286h-14q-62 0 -101.5 -34t-39.5 -87q0 -46 35.5 -84.5t119.5 -80.5zM481 -4v164h-327v176h327v387q-176 92 -249.5 175.5t-73.5 188.5q0 125 89 204.5t234 82.5v146h146v-146h288v-166h-288v-352
q193 -105 269.5 -194t76.5 -201q0 -139 -90 -220t-246 -81h-10v-164h-146z" />
    <glyph glyph-name="percent" unicode="%" horiz-adv-x="1683" 
d="M1110 322q0 -68 49 -116t117 -48q67 0 115.5 48t48.5 116q0 69 -47.5 117t-116.5 48t-117.5 -48t-48.5 -117zM952 322q0 135 94.5 229t229.5 94t228 -94t93 -229q0 -136 -93 -229t-228 -93t-229.5 93.5t-94.5 228.5zM301 0l932 1432h131l-922 -1432h-141zM250 1110
q0 -68 48 -116t116 -48t117 48.5t49 115.5q0 69 -48.5 116.5t-117.5 47.5t-116.5 -47.5t-47.5 -116.5zM92 1110q0 135 93.5 228.5t228.5 93.5t229 -93.5t94 -228.5t-94 -229.5t-229 -94.5t-228.5 94.5t-93.5 229.5z" />
    <glyph glyph-name="ampersand" unicode="&#x26;" horiz-adv-x="1421" 
d="M1026 100q-85 -58 -173.5 -86t-182.5 -28q-115 0 -217.5 40t-184.5 117q-85 81 -131.5 187.5t-46.5 222.5q0 153 65 274t191 205l-63 86q-19 27 -29 57.5t-10 61.5q0 88 73.5 141.5t198.5 53.5h504v-183h-518q-28 0 -39.5 -7t-11.5 -23q0 -7 2 -13t8 -16l575 -793
q15 47 22 88t7 78q0 85 -31.5 158t-95.5 135l123 127q95 -92 142.5 -197.5t47.5 -224.5q0 -88 -24 -171t-72 -157l168 -233h-227zM449 895q-89 -63 -132 -144.5t-43 -185.5q0 -165 115.5 -280t280.5 -115q69 0 129.5 18t118.5 56z" />
    <glyph glyph-name="quotesingle" unicode="'" horiz-adv-x="317" 
d="M229 1436v-555h-139v555h139z" />
    <glyph glyph-name="parenleft" unicode="(" horiz-adv-x="786" 
d="M596 -369q-222 207 -330 430t-108 474q0 250 106.5 467.5t331.5 427.5l100 -140q-185 -162 -273.5 -347t-88.5 -411t89.5 -414.5t272.5 -346.5z" />
    <glyph glyph-name="parenright" unicode=")" horiz-adv-x="786" 
d="M84 -229q183 158 272.5 346.5t89.5 414.5t-88 411t-274 347l102 140q225 -209 331 -426.5t106 -468.5q0 -252 -107.5 -475t-329.5 -429z" />
    <glyph glyph-name="asterisk" unicode="*" horiz-adv-x="1010" 
d="M541 1012l41 -316h-164l49 316l-252 -193l-82 142l297 114l-293 123l80 141l250 -200l-41 317h164l-49 -321l250 200l81 -141l-294 -123l299 -115l-84 -141z" />
    <glyph glyph-name="plus" unicode="+" horiz-adv-x="1706" 
d="M924 1221v-541h528v-139h-528v-541h-142v541h-528v139h528v541h142z" />
    <glyph glyph-name="comma" unicode="," horiz-adv-x="557" 
d="M117 -205l86 398h178l-107 -398h-157z" />
    <glyph glyph-name="hyphen" unicode="-" horiz-adv-x="676" 
d="M111 403v181h452v-181h-452z" />
    <glyph glyph-name="period" unicode="." horiz-adv-x="557" 
d="M160 102q0 50 34 84.5t85 34.5q50 0 84 -34.5t34 -84.5q0 -48 -34.5 -82t-83.5 -34q-50 0 -84.5 34t-34.5 82z" />
    <glyph glyph-name="slash" unicode="/" horiz-adv-x="555" 
d="M109 -190h-127l489 1646h121z" />
    <glyph glyph-name="zero" unicode="0" horiz-adv-x="1114" 
d="M850 492v458q0 145 -84 239.5t-209 94.5q-124 0 -208.5 -95.5t-84.5 -238.5v-458q0 -145 84 -240.5t209 -95.5q126 0 209.5 95t83.5 241zM74 981q0 203 138.5 339t344.5 136t344.5 -136t138.5 -339v-530q0 -205 -137.5 -340.5t-345.5 -135.5t-345.5 136t-137.5 340v530z
" />
    <glyph glyph-name="one" unicode="1" horiz-adv-x="1114" 
d="M510 0v1251h-258l61 181h392v-1432h-195z" />
    <glyph glyph-name="two" unicode="2" horiz-adv-x="1114" 
d="M322 190h722v-190h-790q-82 0 -127 38.5t-45 108.5q0 39 26 81t74 81l512 412q79 63 116.5 133t37.5 154q0 115 -78 190.5t-197 75.5t-197.5 -78.5t-78.5 -198.5q0 -121 70 -197t196 -89l-170 -136q-142 57 -218.5 165t-76.5 253q0 202 136.5 332.5t347.5 130.5
q205 0 337 -125t132 -319q0 -132 -65.5 -244t-209.5 -223z" />
    <glyph glyph-name="three" unicode="3" horiz-adv-x="1114" 
d="M131 1432h598q104 0 156.5 -38t52.5 -112q0 -40 -17.5 -78t-50.5 -67l-290 -273q217 -3 334.5 -113.5t117.5 -312.5q0 -195 -126.5 -316.5t-330.5 -121.5h-479v190h420q153 0 234 67t81 192q0 116 -76 183.5t-208 67.5h-254v131l448 420h-610v181z" />
    <glyph glyph-name="four" unicode="4" horiz-adv-x="1114" 
d="M678 0v336h-492q-70 0 -103.5 30t-33.5 95q0 28 9 59.5t28 67.5l459 844h213l-498 -910h418v606l184 332v-938h219v-186h-219v-336h-184z" />
    <glyph glyph-name="five" unicode="5" horiz-adv-x="1114" 
d="M344 885h203q233 0 361 -114.5t128 -321.5q0 -204 -132 -326.5t-353 -122.5h-449v190h441q137 0 209.5 65.5t72.5 188.5q0 118 -72 185t-198 67h-395v736h743v-185h-559v-362z" />
    <glyph glyph-name="six" unicode="6" horiz-adv-x="1114" 
d="M426 870q-102 -142 -135 -220.5t-33 -155.5q0 -143 89.5 -237.5t221.5 -94.5q130 0 221 99.5t91 242.5q0 142 -90 229.5t-238 87.5q-17 0 -66 -3q-5 -1 -8 -1l127 174q218 -7 344.5 -137.5t126.5 -345.5q0 -231 -141.5 -378.5t-362.5 -147.5q-106 0 -195.5 34.5
t-160.5 104.5t-109 160.5t-38 185.5q0 117 47 233t188 312l299 420h227z" />
    <glyph glyph-name="seven" unicode="7" horiz-adv-x="1114" 
d="M285 0l563 1251h-752v181h748q102 0 151 -37.5t49 -114.5q0 -28 -9 -62t-34 -92l-489 -1126h-227z" />
    <glyph glyph-name="eight" unicode="8" horiz-adv-x="1114" 
d="M326 823q-84 56 -126 127t-42 156q0 150 113.5 250t285.5 100q173 0 286 -100t113 -250q0 -86 -41.5 -156t-126.5 -127q126 -53 192.5 -153t66.5 -236q0 -203 -136.5 -331t-353.5 -128t-353 128t-136 331q0 136 66 236t192 153zM264 436q0 -116 84 -194t209 -78t209 78
t84 194q0 115 -85 195t-208 80q-122 0 -207.5 -80.5t-85.5 -194.5zM365 1087q0 -81 55.5 -136.5t136.5 -55.5t137 56t56 136q0 83 -55 138t-138 55t-137.5 -55t-54.5 -138z" />
    <glyph glyph-name="nine" unicode="9" horiz-adv-x="1114" 
d="M700 561q103 143 135.5 221.5t32.5 155.5q0 142 -89 237t-222 95q-130 0 -219.5 -99.5t-89.5 -242.5t90 -230.5t237 -87.5q16 0 58 3q10 1 14 1l-125 -172q-218 8 -344.5 137t-126.5 345q0 231 142 378.5t362 147.5q107 0 196 -35t160 -104q71 -71 109.5 -161t38.5 -185
q0 -117 -46.5 -231.5t-189.5 -311.5l-299 -422h-227z" />
    <glyph glyph-name="colon" unicode=":" horiz-adv-x="606" 
d="M184 102q0 50 34.5 84.5t84.5 34.5t84.5 -34.5t34.5 -84.5q0 -48 -34.5 -82t-84.5 -34q-49 0 -84 34t-35 82zM184 692q0 50 34.5 84.5t84.5 34.5t84.5 -34.5t34.5 -84.5q0 -49 -35 -84t-84 -35t-84 35t-35 84z" />
    <glyph glyph-name="semicolon" unicode=";" horiz-adv-x="606" 
d="M195 692q0 50 34 84.5t84 34.5t83.5 -34.5t33.5 -84.5q0 -49 -34 -84t-83 -35t-83.5 35t-34.5 84zM145 -205l86 398h179l-107 -398h-158z" />
    <glyph glyph-name="less" unicode="&#x3c;" horiz-adv-x="1706" 
d="M1442 1006l-969 -396l969 -393v-154l-1178 484v129l1178 483v-153z" />
    <glyph glyph-name="equal" unicode="=" horiz-adv-x="1706" 
d="M1452 481v-139h-1198v139h1198zM1452 879v-140h-1198v140h1198z" />
    <glyph glyph-name="greater" unicode="&#x3e;" horiz-adv-x="1706" 
d="M1442 676v-129l-1178 -484v154l971 393l-971 396v153z" />
    <glyph glyph-name="question" unicode="?" 
d="M385 338v454q10 0 23 -0.5t38 -0.5q147 0 227.5 64t80.5 179q0 107 -68 174.5t-176 67.5q-112 0 -177.5 -69.5t-68.5 -190.5h-182q3 199 123.5 319.5t314.5 120.5q189 0 310.5 -120t121.5 -306q0 -170 -103.5 -271.5t-289.5 -113.5v-307h-174zM362 102q0 50 34.5 84.5
t84.5 34.5t84.5 -34.5t34.5 -84.5q0 -48 -34.5 -82t-84.5 -34q-49 0 -84 34t-35 82z" />
    <glyph glyph-name="at" unicode="@" horiz-adv-x="2048" 
d="M1284 854l57 115h132l-146 -576q-4 -16 -6 -31t-2 -28q0 -46 25.5 -70t74.5 -24q48 0 102.5 26.5t106.5 75.5q80 76 125 186.5t45 233.5q0 259 -190.5 420t-499.5 161q-133 0 -246 -28t-211 -86q-191 -114 -296 -299.5t-105 -409.5q0 -177 61.5 -308t192.5 -230
q100 -77 236.5 -118.5t287.5 -41.5q169 0 328.5 49t292.5 141l55 -82q-148 -111 -314.5 -167t-349.5 -56q-190 0 -348 47t-280 140q-154 118 -230 274t-76 354q0 165 52 313t151 269q146 178 351.5 270t455.5 92q163 0 310 -45t253 -127q130 -100 197.5 -231t67.5 -283
q0 -175 -63.5 -315t-184.5 -236q-68 -54 -149.5 -83t-166.5 -29q-99 0 -149.5 39.5t-50.5 117.5v19q-55 -89 -129 -131.5t-172 -42.5q-153 0 -233.5 85t-80.5 247q0 235 138 394t339 159q85 0 145.5 -37.5t96.5 -112.5zM1190 475l59 236q-17 88 -68.5 136t-129.5 48
q-138 0 -232 -130t-94 -319q0 -105 48.5 -162t137.5 -57q97 0 174.5 69t104.5 179z" />
    <glyph glyph-name="A" unicode="A" horiz-adv-x="1229" 
d="M922 0v657h-557v181h557v57q0 187 -79.5 286t-228.5 99t-228 -99t-79 -286v-895h-190v899q0 256 135.5 406.5t361.5 150.5t362 -150.5t136 -406.5v-899h-190z" />
    <glyph glyph-name="B" unicode="B" horiz-adv-x="1155" 
d="M117 0v909q0 257 122.5 402t338.5 145q190 0 319 -115t129 -280q0 -91 -40.5 -164.5t-121.5 -128.5q109 -47 169.5 -139t60.5 -209q0 -187 -132.5 -303.5t-349.5 -116.5h-235v180h237q130 0 204.5 65.5t74.5 178.5q0 109 -75 173.5t-204 64.5h-237v172h168
q133 0 211 58.5t78 158.5q0 101 -70 166t-180 65q-131 0 -205 -85t-74 -236v-961h-188z" />
    <glyph glyph-name="C" unicode="C" horiz-adv-x="1020" 
d="M958 1262q-13 1 -27 1.5t-42 0.5q-291 0 -459 -147.5t-168 -399.5t168 -399.5t459 -147.5q28 0 42.5 0.5t26.5 1.5v-172h-55q-159 0 -280 25t-203 75q-172 105 -262 262.5t-90 354.5q0 196 90 353t262 261q82 50 203 75.5t280 25.5h55v-170z" />
    <glyph glyph-name="D" unicode="D" horiz-adv-x="1282" 
d="M385 174q8 0 24 -1t23 -1q267 0 428.5 150.5t161.5 396.5q0 251 -165 399t-447 148q-15 0 -34 -1t-56 -3l-1 -1262h-188v1432h246q165 0 283.5 -25t203.5 -76q173 -104 263 -261t90 -353t-94.5 -357t-268.5 -264q-80 -47 -195 -71.5t-258 -24.5h-16v174z" />
    <glyph glyph-name="E" unicode="E" horiz-adv-x="1040" 
d="M958 1262q-12 1 -25 1.5t-38 0.5q-266 0 -421 -110.5t-200 -330.5h684v-170h-694q36 -238 193 -359.5t430 -121.5q29 0 44 0.5t27 1.5v-174h-55q-159 0 -280 25t-203 75q-172 105 -262 262.5t-90 354.5q0 196 90 353t262 261q82 50 203 75.5t280 25.5h55v-170z" />
    <glyph glyph-name="F" unicode="F" horiz-adv-x="920" 
d="M117 0v934q0 252 125 375t381 123h204v-177h-237q-137 0 -211 -75.5t-74 -216.5v-160h522v-176h-522v-627h-188z" />
    <glyph glyph-name="G" unicode="G" horiz-adv-x="1583" 
d="M829 817h687v-49q0 -118 -21 -217t-63 -184q-95 -185 -263.5 -288.5t-375.5 -103.5q-145 0 -277 56t-235 162q-105 106 -160 240.5t-55 283.5t55 283.5t160 240.5q103 105 239 160t293 55q161 0 300 -63t269 -195l-127 -129q-107 109 -216.5 161t-231.5 52
q-81 0 -153.5 -20t-133.5 -60q-124 -79 -192 -205.5t-68 -277.5q0 -114 40.5 -216t117.5 -184q74 -78 171.5 -120.5t203.5 -42.5q206 0 348.5 131t171.5 350h-484v180z" />
    <glyph glyph-name="H" unicode="H" horiz-adv-x="1255" 
d="M131 0v1432h188v-594h617v594h190v-1432h-190v657h-617v-657h-188z" />
    <glyph glyph-name="I" unicode="I" horiz-adv-x="465" 
d="M137 0v1432h191v-1432h-191z" />
    <glyph glyph-name="J" unicode="J" horiz-adv-x="825" 
d="M707 1432v-932q0 -252 -125.5 -376t-380.5 -124h-205v176h237q137 0 211 76t74 217v963h189z" />
    <glyph glyph-name="K" unicode="K" horiz-adv-x="1165" 
d="M131 0v1432h188v-594h168q109 0 171 49t130 205l150 340h205l-182 -416q-45 -103 -87 -151t-102 -72q150 -25 226.5 -122.5t76.5 -262.5v-408h-190v334q0 174 -65 248.5t-214 74.5h-287v-657h-188z" />
    <glyph glyph-name="L" unicode="L" horiz-adv-x="848" 
d="M117 1432h190v-963q0 -141 74 -217t211 -76h260v-176h-227q-256 0 -382 124t-126 376v932z" />
    <glyph glyph-name="M" unicode="M" horiz-adv-x="1702" 
d="M45 0l182 1276q13 86 51 130t101 44q54 0 93 -36.5t60 -106.5l320 -1020l317 1020q22 70 61 106.5t93 36.5q63 0 101 -44t51 -130l182 -1276h-182l-164 1180l-328 -1051q-24 -76 -55 -110.5t-76 -34.5q-47 0 -77.5 33t-55.5 112l-328 1051l-162 -1180h-184z" />
    <glyph glyph-name="N" unicode="N" horiz-adv-x="1290" 
d="M311 0h-180v1239q0 101 40.5 155t115.5 54q53 0 95.5 -35t78.5 -108l516 -1072v1199h182v-1244q0 -98 -40 -153t-111 -55q-56 0 -100.5 35.5t-78.5 107.5l-518 1079v-1202z" />
    <glyph glyph-name="O" unicode="O" horiz-adv-x="1583" 
d="M66 717q0 150 54.5 283.5t160.5 240.5q103 105 234.5 160t277.5 55q144 0 276 -56t236 -161q104 -106 158.5 -239.5t54.5 -282.5q0 -150 -55 -284.5t-158 -239.5q-104 -106 -236 -162t-276 -56q-146 0 -277.5 55.5t-234.5 159.5q-106 108 -160.5 242t-54.5 285zM260 719
q0 -116 40.5 -217.5t117.5 -182.5q76 -79 173 -121t202 -42q106 0 201.5 42t170.5 121q77 82 117.5 184t40.5 216q0 113 -40 214t-118 183q-75 80 -170.5 122t-201.5 42t-203 -41.5t-172 -120.5q-78 -82 -118 -183.5t-40 -215.5z" />
    <glyph glyph-name="P" unicode="P" horiz-adv-x="1110" 
d="M117 0v866q0 141 16 220.5t53 142.5q65 110 170.5 169.5t235.5 59.5q195 0 333 -136.5t138 -328.5q0 -198 -136.5 -329.5t-344.5 -131.5h-203v181h178q142 0 226.5 78t84.5 206q0 119 -81 200t-199 81q-130 0 -205.5 -87t-75.5 -237v-954h-190z" />
    <glyph glyph-name="Q" unicode="Q" horiz-adv-x="1583" 
d="M735 -276v747h185v-297q184 50 293.5 198.5t109.5 346.5q0 113 -40 215t-116 182q-74 79 -171 121.5t-203 42.5q-107 0 -203.5 -42.5t-171.5 -121.5q-78 -82 -118 -183t-40 -214q0 -195 108.5 -345t286.5 -200v-184q-269 62 -429 260t-160 467q0 149 54 282.5t159 239.5
q103 105 235.5 161t278.5 56q144 0 276 -56t236 -161q103 -107 158 -240.5t55 -281.5q0 -270 -163 -469t-435 -260v-264h-185z" />
    <glyph glyph-name="R" unicode="R" horiz-adv-x="1143" 
d="M117 0v918q0 251 124.5 394.5t342.5 143.5q193 0 322.5 -116.5t129.5 -286.5q0 -102 -49 -182t-143 -132q111 -30 162 -113.5t51 -236.5v-389h-189v317q0 180 -58.5 245t-211.5 65h-217v174h168q139 0 216 63t77 176q0 106 -72.5 173t-187.5 67q-127 0 -202 -86t-75 -233
v-961h-188z" />
    <glyph glyph-name="S" unicode="S" horiz-adv-x="1075" 
d="M72 0v190h489q117 0 177.5 46t60.5 135q0 69 -46.5 120.5t-174.5 116.5l-240 123q-132 67 -196 154.5t-64 199.5q0 161 117 254t321 93h414v-189h-477q-82 0 -130.5 -41.5t-48.5 -109.5q0 -62 42.5 -107.5t203.5 -128.5l209 -106q137 -70 202.5 -160t65.5 -209
q0 -181 -123.5 -281t-349.5 -100h-452z" />
    <glyph glyph-name="T" unicode="T" horiz-adv-x="991" 
d="M399 0v1255h-366v177h923v-177h-366v-1255h-191z" />
    <glyph glyph-name="U" unicode="U" horiz-adv-x="1229" 
d="M307 1432v-891q0 -187 79 -286t228 -99t228.5 99t79.5 286v891h190v-900q0 -255 -136 -406t-362 -151t-361.5 151t-135.5 406v900h190z" />
    <glyph glyph-name="V" unicode="V" horiz-adv-x="1049" 
d="M-39 1432h191l372 -1211l373 1211h190l-393 -1272q-32 -101 -71 -143t-99 -42t-98.5 41.5t-71.5 143.5z" />
    <glyph glyph-name="W" unicode="W" horiz-adv-x="1835" 
d="M121 1432h188v-957q0 -155 67 -238t191 -83t190 83t66 238v957h189v-957q0 -155 66 -238t190 -83q123 0 189.5 83t66.5 238v957h190v-957q0 -227 -122 -363.5t-324 -136.5q-106 0 -194.5 44t-155.5 131q-65 -85 -155.5 -130t-195.5 -45q-202 0 -324 135.5t-122 364.5v957
z" />
    <glyph glyph-name="X" unicode="X" horiz-adv-x="1251" 
d="M1232 0q-211 5 -362.5 95.5t-244.5 269.5q-91 -178 -242.5 -269t-363.5 -96l-1 172q235 8 374.5 156.5t139.5 388.5t-139.5 388.5t-374.5 156.5v169q213 -4 364.5 -95.5t242.5 -268.5q93 178 245 269t363 95v-169q-235 -8 -374.5 -156.5t-139.5 -388.5t139.5 -388.5
t374.5 -156.5z" />
    <glyph glyph-name="Y" unicode="Y" horiz-adv-x="1110" 
d="M461 0v549q-177 45 -267 169t-90 324v390h191v-392q0 -157 67 -241t193 -84t193 84t67 241v392h191v-390q0 -200 -90 -324t-267 -169v-549h-188z" />
    <glyph glyph-name="Z" unicode="Z" horiz-adv-x="1020" 
d="M985 180v-180h-743q-112 0 -160.5 37.5t-48.5 122.5q0 62 101 206l9 13l631 876h-661v177h645q112 0 160.5 -38t48.5 -122q0 -38 -21 -82.5t-88 -136.5l-629 -873h756z" />
    <glyph glyph-name="bracketleft" unicode="[" horiz-adv-x="668" 
d="M559 -250v-104h-356v1786h356v-105h-182v-1577h182z" />
    <glyph glyph-name="backslash" unicode="\" horiz-adv-x="555" 
d="M573 -190h-127l-483 1646h121z" />
    <glyph glyph-name="bracketright" unicode="]" horiz-adv-x="668" 
d="M109 1327v105h358v-1786h-358v104h184v1577h-184z" />
    <glyph glyph-name="asciicircum" unicode="^" horiz-adv-x="2048" 
d="M1116 1458l510 -557h-180l-422 420l-424 -420h-180l510 557h186z" />
    <glyph glyph-name="underscore" unicode="_" 
d="M1024 -340v-143h-1024v143h1024z" />
    <glyph glyph-name="grave" unicode="`" 
d="M649 1096h-106l-281 348h178z" />
    <glyph glyph-name="a" unicode="a" horiz-adv-x="1151" 
d="M870 0v489q0 154 -87 249.5t-226 95.5q-138 0 -226.5 -94.5t-88.5 -243.5q0 -152 91 -249t232 -97q64 0 124.5 22t121.5 68v-189q-60 -34 -126.5 -50.5t-139.5 -16.5q-70 0 -139 21.5t-125 60.5q-106 73 -162 182.5t-56 243.5q0 220 139 363.5t353 143.5q141 0 258 -71
t180 -195q29 -56 41.5 -122.5t12.5 -198.5v-412h-177z" />
    <glyph glyph-name="b" unicode="b" horiz-adv-x="1151" 
d="M104 1432h177v-940q0 -154 87 -249.5t226 -95.5q141 0 229 95.5t88 251.5q0 149 -90.5 243t-232.5 94q-64 0 -126 -22t-122 -68v189q60 34 126.5 50.5t139.5 16.5q70 0 139 -21.5t125 -60.5q107 -74 163.5 -183t56.5 -240q0 -222 -139.5 -366t-352.5 -144
q-142 0 -260 71.5t-180 196.5q-29 55 -41.5 121t-12.5 198v863z" />
    <glyph glyph-name="c" unicode="c" horiz-adv-x="786" 
d="M725 813h-76q-185 0 -295 -88.5t-110 -235.5q0 -146 110.5 -234.5t294.5 -88.5h76v-166h-88q-263 0 -419.5 134.5t-156.5 357.5q0 120 56 224t159 175q72 48 153 69t208 21h88v-168z" />
    <glyph glyph-name="d" unicode="d" horiz-adv-x="1151" 
d="M1051 1432v-863q0 -132 -12.5 -198t-41.5 -121q-62 -126 -179 -197t-259 -71q-214 0 -353.5 144.5t-139.5 365.5q0 99 34 189t99 161q66 74 158 114.5t192 40.5q73 0 139.5 -16.5t126.5 -50.5v-189q-61 46 -121.5 68t-124.5 22q-141 0 -232 -97t-91 -249
q0 -149 88.5 -243.5t226.5 -94.5q139 0 226 95.5t87 249.5v940h177z" />
    <glyph glyph-name="e" unicode="e" horiz-adv-x="1110" 
d="M1051 434q-37 -210 -170 -332t-324 -122q-65 0 -128.5 17.5t-119.5 51.5q-118 72 -183 188t-65 255q0 102 37.5 194t108.5 166q71 73 161.5 111t190.5 38q149 0 266.5 -78.5t190.5 -228.5l-643 -356l-74 133l477 266q-44 49 -99 74t-120 25q-132 0 -222.5 -98.5
t-90.5 -243.5q0 -144 91 -243t222 -99q125 0 209.5 82.5t105.5 226.5z" />
    <glyph glyph-name="f" unicode="f" horiz-adv-x="639" 
d="M121 0v1067q0 183 103 274t311 91h106v-168h-102q-127 0 -185.5 -55t-58.5 -173v-55h346v-166h-346v-815h-174z" />
    <glyph glyph-name="g" unicode="g" horiz-adv-x="1151" 
d="M1047 57q0 -239 -134.5 -376.5t-367.5 -137.5q-71 0 -147.5 14t-161.5 42l38 168q88 -29 154.5 -42.5t120.5 -13.5q150 0 235.5 88t85.5 242v448q0 154 -87 249.5t-226 95.5q-138 0 -226.5 -94.5t-88.5 -243.5q0 -152 91 -249t232 -97q64 0 124.5 22t121.5 68v-189
q-60 -34 -126.5 -50.5t-139.5 -16.5q-70 0 -139 21.5t-125 60.5q-106 73 -162 182.5t-56 243.5q0 220 139 363.5t353 143.5q141 0 258 -71t180 -195q29 -56 41.5 -122.5t12.5 -198.5v-355z" />
    <glyph glyph-name="h" unicode="h" horiz-adv-x="1063" 
d="M121 0v1432h176v-545q61 58 128.5 86t143.5 28q183 0 284 -121t101 -341v-539h-176v567q0 126 -60.5 194t-172.5 68q-110 0 -179 -82t-69 -217v-530h-176z" />
    <glyph glyph-name="i" unicode="i" horiz-adv-x="418" 
d="M121 0v981h176v-981h-176zM102 1260q0 44 31 75t76 31t75.5 -30.5t30.5 -75.5q0 -46 -30.5 -77.5t-75.5 -31.5q-44 0 -75.5 32t-31.5 77z" />
    <glyph glyph-name="j" unicode="j" horiz-adv-x="418" 
d="M102 1260q0 44 31 75t76 31t75.5 -30.5t30.5 -75.5q0 -46 -30.5 -77.5t-75.5 -31.5q-44 0 -75.5 32t-31.5 77zM297 -70q0 -183 -103.5 -274.5t-310.5 -91.5h-106v168h102q126 0 184 54.5t58 172.5v1022h176v-1051z" />
    <glyph glyph-name="k" unicode="k" horiz-adv-x="967" 
d="M121 0v1432h176v-807h78q75 0 122.5 31t102.5 122l125 203h205l-144 -233q-38 -63 -75 -104t-70 -58q121 -23 178.5 -99.5t57.5 -216.5v-270h-177v248q0 106 -46.5 155.5t-147.5 49.5h-209v-453h-176z" />
    <glyph glyph-name="l" unicode="l" horiz-adv-x="418" 
d="M121 0v1432h176v-1432h-176z" />
    <glyph glyph-name="m" unicode="m" horiz-adv-x="1591" 
d="M106 0v567q0 200 105 316t283 116q91 0 168 -38.5t133 -112.5q58 75 134 113t167 38q176 0 281.5 -116.5t105.5 -315.5v-567h-174v600q0 103 -59 166t-154 63t-154 -63t-59 -166v-600h-174v600q0 103 -60 166t-155 63q-96 0 -154.5 -63t-58.5 -166v-600h-175z" />
    <glyph glyph-name="n" unicode="n" horiz-adv-x="1049" 
d="M106 0v535q0 214 114 339t304 125t303 -125t113 -339v-535h-174v567q0 116 -67.5 189t-174.5 73q-106 0 -174.5 -73t-68.5 -189v-567h-175z" />
    <glyph glyph-name="o" unicode="o" horiz-adv-x="1114" 
d="M244 494q0 -143 91.5 -242.5t221.5 -99.5t221.5 99.5t91.5 242.5q0 142 -91 241t-222 99q-130 0 -221.5 -99t-91.5 -241zM61 492q0 102 38 194t110 166q71 72 159.5 109.5t188.5 37.5t190 -37.5t160 -109.5q71 -72 108.5 -165t37.5 -195q0 -104 -37.5 -197.5
t-108.5 -165.5q-70 -72 -160 -109.5t-190 -37.5t-188.5 37.5t-159.5 109.5q-72 73 -110 166t-38 197z" />
    <glyph glyph-name="p" unicode="p" horiz-adv-x="1151" 
d="M104 -436v848q0 125 12.5 194t41.5 127q61 125 178.5 195.5t261.5 70.5q214 0 353 -143.5t139 -363.5q0 -100 -34.5 -191t-99.5 -162q-66 -74 -158 -114.5t-192 -40.5q-73 0 -139.5 16.5t-126.5 50.5v189q60 -46 122 -68t126 -22q141 0 232 97t91 249q0 148 -89 243
t-228 95t-226 -95.5t-87 -249.5v-925h-177z" />
    <glyph glyph-name="q" unicode="q" horiz-adv-x="1151" 
d="M870 -436v925q0 154 -87 249.5t-226 95.5q-138 0 -226.5 -94.5t-88.5 -243.5q0 -152 91 -249t232 -97q64 0 124.5 22t121.5 68v-189q-60 -34 -126.5 -50.5t-139.5 -16.5q-70 0 -139 21.5t-125 60.5q-106 73 -162 182.5t-56 243.5q0 220 139 363.5t353 143.5
q143 0 260 -70.5t178 -193.5q29 -57 41.5 -124t12.5 -199v-848h-177z" />
    <glyph glyph-name="r" unicode="r" horiz-adv-x="664" 
d="M119 0v981h162v-145q45 86 124 124.5t213 38.5h46v-170h-27q-181 0 -261.5 -86t-80.5 -280v-463h-176z" />
    <glyph glyph-name="s" unicode="s" horiz-adv-x="887" 
d="M72 168h424q64 0 100.5 25t36.5 69q0 37 -27.5 63t-103.5 58l-168 68q-148 60 -204 122.5t-56 159.5q0 120 85 184t244 64h363v-164h-410q-50 0 -78 -22t-28 -62q0 -30 25 -54t83 -48l177 -72q165 -68 222.5 -131t57.5 -160q0 -136 -101 -202t-311 -66h-331v168z" />
    <glyph glyph-name="t" unicode="t" horiz-adv-x="645" 
d="M109 1241h176v-260h297v-166h-297v-420q0 -118 57.5 -172.5t183.5 -54.5h56v-168h-58q-208 0 -311.5 91t-103.5 274v876z" />
    <glyph glyph-name="u" unicode="u" horiz-adv-x="1049" 
d="M940 981v-535q0 -214 -113.5 -339t-304.5 -125q-190 0 -303 125t-113 339v535h175v-567q0 -116 68.5 -189t174.5 -73q107 0 174.5 73t67.5 189v567h174z" />
    <glyph glyph-name="v" unicode="v" horiz-adv-x="920" 
d="M180 981l281 -772l280 772h181l-328 -883q-23 -62 -55.5 -90t-79.5 -28t-78.5 28t-54.5 90l-326 883h180z" />
    <glyph glyph-name="w" unicode="w" horiz-adv-x="1591" 
d="M1483 981v-567q0 -200 -105 -316t-282 -116q-92 0 -169 38.5t-132 112.5q-59 -75 -135 -113t-166 -38q-177 0 -282.5 116.5t-105.5 315.5v567h175v-598q0 -104 58.5 -167.5t154.5 -63.5q95 0 155 64t60 167v598h174v-598q0 -104 58.5 -167.5t154.5 -63.5q94 0 153.5 64
t59.5 167v598h174z" />
    <glyph glyph-name="x" unicode="x" horiz-adv-x="901" 
d="M23 981h34q129 0 227 -56t167 -169q70 114 167 169.5t224 55.5h35l-1 -168q-156 -2 -250 -90.5t-94 -233.5q0 -143 94.5 -231.5t249.5 -91.5l1 -166h-23q-134 0 -232.5 54.5t-170.5 168.5q-71 -113 -171 -168t-235 -55h-22v166q156 3 251 92t95 231q0 145 -94.5 233.5
t-251.5 90.5v168z" />
    <glyph glyph-name="y" unicode="y" horiz-adv-x="1049" 
d="M940 981v-535q0 -188 -82 -301.5t-248 -154.5v-426h-176v426q-166 41 -247 154t-81 302v535h175v-567q0 -116 68.5 -189t174.5 -73q107 0 174.5 73t67.5 189v567h174z" />
    <glyph glyph-name="z" unicode="z" horiz-adv-x="854" 
d="M621 981q90 0 136 -30.5t46 -90.5q0 -32 -14 -63.5t-44 -63.5l-495 -565h557v-168h-588q-84 0 -129 34t-45 97q0 30 16 61.5t56 75.5l479 547h-512v166h537z" />
    <glyph glyph-name="braceleft" unicode="{" 
d="M866 1327h-41q-120 0 -161 -44.5t-41 -184.5v-242q0 -160 -44.5 -228t-156.5 -98q113 -28 157 -96t44 -229v-242q0 -141 41.5 -185t162.5 -44h39v-148h-43q-108 0 -169 11.5t-103 37.5q-55 34 -77.5 97t-22.5 211v245q0 149 -54.5 210t-185.5 61q-7 0 -21.5 -1t-21.5 -1
v149q8 0 23 -1t22 -1q130 0 184 60.5t54 207.5v246q0 148 22.5 210.5t77.5 96.5q45 28 108.5 40t169.5 12h37v-150z" />
    <glyph glyph-name="bar" unicode="|" 
d="M588 1565v-2048h-150v2048h150z" />
    <glyph glyph-name="braceright" unicode="}" 
d="M575 1118v-246q0 -147 54 -207.5t184 -60.5q7 0 22 1t23 1v-149q-7 0 -22 1t-21 1q-132 0 -186 -60.5t-54 -210.5v-245q0 -148 -22.5 -211t-77.5 -97q-42 -26 -103 -37.5t-169 -11.5h-43v148h39q120 0 162 45t42 186v240q0 160 44.5 228t156.5 97q-112 30 -156.5 98
t-44.5 228v242q0 140 -42 184.5t-162 44.5h-39v150h37q107 0 171 -12.5t107 -39.5q55 -34 77.5 -96.5t22.5 -210.5z" />
    <glyph glyph-name="asciitilde" unicode="~" horiz-adv-x="1706" 
d="M1530 614q-104 -72 -199 -106.5t-190 -34.5q-93 0 -256 58q-22 8 -34 12l-15 5q-176 60 -273 60q-84 0 -175 -37t-210 -120v155q106 72 202 108t185 36q62 0 127.5 -13.5t163.5 -48.5q16 -5 47 -17q159 -57 240 -57q88 0 179.5 37t207.5 119v-156z" />
    <glyph glyph-name="Adieresis" unicode="&#xc4;" horiz-adv-x="1229" 
d="M922 0v657h-557v181h557v57q0 187 -79.5 286t-228.5 99t-228 -99t-79 -286v-895h-190v899q0 256 135.5 406.5t361.5 150.5t362 -150.5t136 -406.5v-899h-190zM690 1724q0 40 30 70.5t70 30.5t69 -30t29 -71q0 -42 -28 -71t-70 -29t-71 29t-29 71zM340 1724q0 41 29 71
t69 30t70 -30.5t30 -70.5q0 -42 -29 -71t-71 -29t-70 29t-28 71z" />
    <glyph glyph-name="Aring" unicode="&#xc5;" horiz-adv-x="1229" 
d="M479 1739q0 -56 39.5 -94.5t95.5 -38.5t95 38.5t39 94.5t-39 95.5t-95 39.5t-95.5 -39.5t-39.5 -95.5zM381 1741q0 98 67.5 164.5t165.5 66.5q99 0 165.5 -66.5t66.5 -164.5q0 -99 -67 -166.5t-165 -67.5t-165.5 67.5t-67.5 166.5zM922 0v657h-557v181h557v57
q0 187 -79.5 286t-228.5 99t-228 -99t-79 -286v-895h-190v899q0 256 135.5 406.5t361.5 150.5t362 -150.5t136 -406.5v-899h-190z" />
    <glyph glyph-name="Ccedilla" unicode="&#xc7;" horiz-adv-x="1020" 
d="M958 1262q-13 1 -27 1.5t-42 0.5q-291 0 -459 -147.5t-168 -399.5t168 -399.5t459 -147.5q28 0 42.5 0.5t26.5 1.5v-172h-55q-159 0 -280 25t-203 75q-172 105 -262 262.5t-90 354.5q0 196 90 353t262 261q82 50 203 75.5t280 25.5h55v-170zM420 -424v88
q80 -18 141.5 -27.5t104.5 -9.5q60 0 90.5 21.5t30.5 62.5q0 53 -32 76t-106 23q-21 0 -32.5 -0.5t-22.5 -1.5l57 276h74l-41 -190h15q107 0 163 -45.5t56 -131.5q0 -89 -63 -135.5t-185 -46.5q-47 0 -108 10t-142 31z" />
    <glyph glyph-name="Eacute" unicode="&#xc9;" horiz-adv-x="1040" 
d="M958 1262q-12 1 -25 1.5t-38 0.5q-266 0 -421 -110.5t-200 -330.5h684v-170h-694q36 -238 193 -359.5t430 -121.5q29 0 44 0.5t27 1.5v-174h-55q-159 0 -280 25t-203 75q-172 105 -262 262.5t-90 354.5q0 196 90 353t262 261q82 50 203 75.5t280 25.5h55v-170zM545 1567
l209 348h178l-281 -348h-106z" />
    <glyph glyph-name="Ntilde" unicode="&#xd1;" horiz-adv-x="1290" 
d="M311 0h-180v1239q0 101 40.5 155t115.5 54q53 0 95.5 -35t78.5 -108l516 -1072v1199h182v-1244q0 -98 -40 -153t-111 -55q-56 0 -100.5 35.5t-78.5 107.5l-518 1079v-1202zM936 1835q-24 -93 -75.5 -143t-123.5 -50q-17 1 -32 3t-34 8l-79 26q-12 4 -25.5 6.5t-27.5 2.5
q-35 0 -58.5 -15.5t-38.5 -48.5h-88q22 91 72.5 138.5t126.5 47.5q17 0 32 -2t27 -6l79 -27q21 -6 35.5 -9t24.5 -3q36 0 60 18.5t37 53.5h88z" />
    <glyph glyph-name="Odieresis" unicode="&#xd6;" horiz-adv-x="1583" 
d="M66 717q0 150 54.5 283.5t160.5 240.5q103 105 234.5 160t277.5 55q144 0 276 -56t236 -161q104 -106 158.5 -239.5t54.5 -282.5q0 -150 -55 -284.5t-158 -239.5q-104 -106 -236 -162t-276 -56q-146 0 -277.5 55.5t-234.5 159.5q-106 108 -160.5 242t-54.5 285zM260 719
q0 -116 40.5 -217.5t117.5 -182.5q76 -79 173 -121t202 -42q106 0 201.5 42t170.5 121q77 82 117.5 184t40.5 216q0 113 -40 214t-118 183q-75 80 -170.5 122t-201.5 42t-203 -41.5t-172 -120.5q-78 -82 -118 -183.5t-40 -215.5zM869 1724q0 40 30 70.5t70 30.5t69 -30
t29 -71q0 -42 -28 -71t-70 -29t-71 29t-29 71zM519 1724q0 41 29 71t69 30t70 -30.5t30 -70.5q0 -42 -29 -71t-71 -29t-70 29t-28 71z" />
    <glyph glyph-name="Udieresis" unicode="&#xdc;" horiz-adv-x="1229" 
d="M307 1432v-891q0 -187 79 -286t228 -99t228.5 99t79.5 286v891h190v-900q0 -255 -136 -406t-362 -151t-361.5 151t-135.5 406v900h190zM690 1724q0 40 30 70.5t70 30.5t69 -30t29 -71q0 -42 -28 -71t-70 -29t-71 29t-29 71zM340 1724q0 41 29 71t69 30t70 -30.5t30 -70.5
q0 -42 -29 -71t-71 -29t-70 29t-28 71z" />
    <glyph glyph-name="aacute" unicode="&#xe1;" horiz-adv-x="1151" 
d="M870 0v489q0 154 -87 249.5t-226 95.5q-138 0 -226.5 -94.5t-88.5 -243.5q0 -152 91 -249t232 -97q64 0 124.5 22t121.5 68v-189q-60 -34 -126.5 -50.5t-139.5 -16.5q-70 0 -139 21.5t-125 60.5q-106 73 -162 182.5t-56 243.5q0 220 139 363.5t353 143.5q141 0 258 -71
t180 -195q29 -56 41.5 -122.5t12.5 -198.5v-412h-177zM438 1096l209 348h178l-281 -348h-106z" />
    <glyph glyph-name="agrave" unicode="&#xe0;" horiz-adv-x="1151" 
d="M870 0v489q0 154 -87 249.5t-226 95.5q-138 0 -226.5 -94.5t-88.5 -243.5q0 -152 91 -249t232 -97q64 0 124.5 22t121.5 68v-189q-60 -34 -126.5 -50.5t-139.5 -16.5q-70 0 -139 21.5t-125 60.5q-106 73 -162 182.5t-56 243.5q0 220 139 363.5t353 143.5q141 0 258 -71
t180 -195q29 -56 41.5 -122.5t12.5 -198.5v-412h-177zM712 1096h-106l-281 348h178z" />
    <glyph glyph-name="acircumflex" unicode="&#xe2;" horiz-adv-x="1151" 
d="M870 0v489q0 154 -87 249.5t-226 95.5q-138 0 -226.5 -94.5t-88.5 -243.5q0 -152 91 -249t232 -97q64 0 124.5 22t121.5 68v-189q-60 -34 -126.5 -50.5t-139.5 -16.5q-70 0 -139 21.5t-125 60.5q-106 73 -162 182.5t-56 243.5q0 220 139 363.5t353 143.5q141 0 258 -71
t180 -195q29 -56 41.5 -122.5t12.5 -198.5v-412h-177zM288 1096l197 348h178l197 -348h-107l-178 243l-180 -243h-107z" />
    <glyph glyph-name="adieresis" unicode="&#xe4;" horiz-adv-x="1151" 
d="M870 0v489q0 154 -87 249.5t-226 95.5q-138 0 -226.5 -94.5t-88.5 -243.5q0 -152 91 -249t232 -97q64 0 124.5 22t121.5 68v-189q-60 -34 -126.5 -50.5t-139.5 -16.5q-70 0 -139 21.5t-125 60.5q-106 73 -162 182.5t-56 243.5q0 220 139 363.5t353 143.5q141 0 258 -71
t180 -195q29 -56 41.5 -122.5t12.5 -198.5v-412h-177zM651 1253q0 40 30 70.5t70 30.5t69 -30t29 -71q0 -42 -28 -71t-70 -29t-71 29t-29 71zM301 1253q0 41 29 71t69 30t70 -30.5t30 -70.5q0 -42 -29 -71t-71 -29t-70 29t-28 71z" />
    <glyph glyph-name="atilde" unicode="&#xe3;" horiz-adv-x="1151" 
d="M870 0v489q0 154 -87 249.5t-226 95.5q-138 0 -226.5 -94.5t-88.5 -243.5q0 -152 91 -249t232 -97q64 0 124.5 22t121.5 68v-189q-60 -34 -126.5 -50.5t-139.5 -16.5q-70 0 -139 21.5t-125 60.5q-106 73 -162 182.5t-56 243.5q0 220 139 363.5t353 143.5q141 0 258 -71
t180 -195q29 -56 41.5 -122.5t12.5 -198.5v-412h-177zM866 1364q-24 -93 -75.5 -143t-123.5 -50q-17 1 -32 3t-34 8l-79 26q-12 4 -25.5 6.5t-27.5 2.5q-35 0 -58.5 -15.5t-38.5 -48.5h-88q22 91 72.5 138.5t126.5 47.5q17 0 32 -2t27 -6l79 -27q21 -6 35.5 -9t24.5 -3
q36 0 60 18.5t37 53.5h88z" />
    <glyph glyph-name="aring" unicode="&#xe5;" horiz-adv-x="1151" 
d="M350 1315q0 104 72 176t176 72t176 -72t72 -176q0 -105 -72 -176.5t-176 -71.5t-176 71.5t-72 176.5zM455 1315q0 -60 41.5 -102t101.5 -42t100.5 42t40.5 102t-40.5 100.5t-100.5 40.5q-61 0 -102 -40.5t-41 -100.5zM870 0v489q0 154 -87 249.5t-226 95.5
q-138 0 -226.5 -94.5t-88.5 -243.5q0 -152 91 -249t232 -97q64 0 124.5 22t121.5 68v-189q-60 -34 -126.5 -50.5t-139.5 -16.5q-70 0 -139 21.5t-125 60.5q-106 73 -162 182.5t-56 243.5q0 220 139 363.5t353 143.5q141 0 258 -71t180 -195q29 -56 41.5 -122.5t12.5 -198.5
v-412h-177z" />
    <glyph glyph-name="ccedilla" unicode="&#xe7;" horiz-adv-x="786" 
d="M725 813h-76q-185 0 -295 -88.5t-110 -235.5q0 -146 110.5 -234.5t294.5 -88.5h76v-166h-88q-263 0 -419.5 134.5t-156.5 357.5q0 120 56 224t159 175q72 48 153 69t208 21h88v-168zM246 -424v88q80 -18 141.5 -27.5t104.5 -9.5q60 0 90.5 21.5t30.5 62.5q0 53 -32 76
t-106 23q-21 0 -32.5 -0.5t-22.5 -1.5l57 276h74l-41 -190h15q107 0 163 -45.5t56 -131.5q0 -89 -63 -135.5t-185 -46.5q-47 0 -108 10t-142 31z" />
    <glyph glyph-name="eacute" unicode="&#xe9;" horiz-adv-x="1110" 
d="M1051 434q-37 -210 -170 -332t-324 -122q-65 0 -128.5 17.5t-119.5 51.5q-118 72 -183 188t-65 255q0 102 37.5 194t108.5 166q71 73 161.5 111t190.5 38q149 0 266.5 -78.5t190.5 -228.5l-643 -356l-74 133l477 266q-44 49 -99 74t-120 25q-132 0 -222.5 -98.5
t-90.5 -243.5q0 -144 91 -243t222 -99q125 0 209.5 82.5t105.5 226.5zM418 1096l209 348h178l-281 -348h-106z" />
    <glyph glyph-name="egrave" unicode="&#xe8;" horiz-adv-x="1110" 
d="M1051 434q-37 -210 -170 -332t-324 -122q-65 0 -128.5 17.5t-119.5 51.5q-118 72 -183 188t-65 255q0 102 37.5 194t108.5 166q71 73 161.5 111t190.5 38q149 0 266.5 -78.5t190.5 -228.5l-643 -356l-74 133l477 266q-44 49 -99 74t-120 25q-132 0 -222.5 -98.5
t-90.5 -243.5q0 -144 91 -243t222 -99q125 0 209.5 82.5t105.5 226.5zM692 1096h-106l-281 348h178z" />
    <glyph glyph-name="ecircumflex" unicode="&#xea;" horiz-adv-x="1110" 
d="M1051 434q-37 -210 -170 -332t-324 -122q-65 0 -128.5 17.5t-119.5 51.5q-118 72 -183 188t-65 255q0 102 37.5 194t108.5 166q71 73 161.5 111t190.5 38q149 0 266.5 -78.5t190.5 -228.5l-643 -356l-74 133l477 266q-44 49 -99 74t-120 25q-132 0 -222.5 -98.5
t-90.5 -243.5q0 -144 91 -243t222 -99q125 0 209.5 82.5t105.5 226.5zM268 1096l197 348h178l197 -348h-107l-178 243l-180 -243h-107z" />
    <glyph glyph-name="edieresis" unicode="&#xeb;" horiz-adv-x="1110" 
d="M1051 434q-37 -210 -170 -332t-324 -122q-65 0 -128.5 17.5t-119.5 51.5q-118 72 -183 188t-65 255q0 102 37.5 194t108.5 166q71 73 161.5 111t190.5 38q149 0 266.5 -78.5t190.5 -228.5l-643 -356l-74 133l477 266q-44 49 -99 74t-120 25q-132 0 -222.5 -98.5
t-90.5 -243.5q0 -144 91 -243t222 -99q125 0 209.5 82.5t105.5 226.5zM631 1253q0 40 30 70.5t70 30.5t69 -30t29 -71q0 -42 -28 -71t-70 -29t-71 29t-29 71zM281 1253q0 41 29 71t69 30t70 -30.5t30 -70.5q0 -42 -29 -71t-71 -29t-70 29t-28 71z" />
    <glyph glyph-name="iacute" unicode="&#xed;" horiz-adv-x="418" 
d="M121 0v981h176v-981h-176zM72 1096l209 348h178l-281 -348h-106z" />
    <glyph glyph-name="igrave" unicode="&#xec;" horiz-adv-x="418" 
d="M121 0v981h176v-981h-176zM346 1096h-106l-281 348h178z" />
    <glyph glyph-name="icircumflex" unicode="&#xee;" horiz-adv-x="418" 
d="M121 0v981h176v-981h-176zM-78 1096l197 348h178l197 -348h-107l-178 243l-180 -243h-107z" />
    <glyph glyph-name="idieresis" unicode="&#xef;" horiz-adv-x="418" 
d="M121 0v981h176v-981h-176zM285 1253q0 40 30 70.5t70 30.5t69 -30t29 -71q0 -42 -28 -71t-70 -29t-71 29t-29 71zM-65 1253q0 41 29 71t69 30t70 -30.5t30 -70.5q0 -42 -29 -71t-71 -29t-70 29t-28 71z" />
    <glyph glyph-name="ntilde" unicode="&#xf1;" horiz-adv-x="1049" 
d="M106 0v535q0 214 114 339t304 125t303 -125t113 -339v-535h-174v567q0 116 -67.5 189t-174.5 73q-106 0 -174.5 -73t-68.5 -189v-567h-175zM815 1364q-24 -93 -75.5 -143t-123.5 -50q-17 1 -32 3t-34 8l-79 26q-12 4 -25.5 6.5t-27.5 2.5q-35 0 -58.5 -15.5t-38.5 -48.5
h-88q22 91 72.5 138.5t126.5 47.5q17 0 32 -2t27 -6l79 -27q21 -6 35.5 -9t24.5 -3q36 0 60 18.5t37 53.5h88z" />
    <glyph glyph-name="oacute" unicode="&#xf3;" horiz-adv-x="1114" 
d="M244 494q0 -143 91.5 -242.5t221.5 -99.5t221.5 99.5t91.5 242.5q0 142 -91 241t-222 99q-130 0 -221.5 -99t-91.5 -241zM61 492q0 102 38 194t110 166q71 72 159.5 109.5t188.5 37.5t190 -37.5t160 -109.5q71 -72 108.5 -165t37.5 -195q0 -104 -37.5 -197.5
t-108.5 -165.5q-70 -72 -160 -109.5t-190 -37.5t-188.5 37.5t-159.5 109.5q-72 73 -110 166t-38 197zM420 1096l209 348h178l-281 -348h-106z" />
    <glyph glyph-name="ograve" unicode="&#xf2;" horiz-adv-x="1114" 
d="M244 494q0 -143 91.5 -242.5t221.5 -99.5t221.5 99.5t91.5 242.5q0 142 -91 241t-222 99q-130 0 -221.5 -99t-91.5 -241zM61 492q0 102 38 194t110 166q71 72 159.5 109.5t188.5 37.5t190 -37.5t160 -109.5q71 -72 108.5 -165t37.5 -195q0 -104 -37.5 -197.5
t-108.5 -165.5q-70 -72 -160 -109.5t-190 -37.5t-188.5 37.5t-159.5 109.5q-72 73 -110 166t-38 197zM694 1096h-106l-281 348h178z" />
    <glyph glyph-name="ocircumflex" unicode="&#xf4;" horiz-adv-x="1114" 
d="M244 494q0 -143 91.5 -242.5t221.5 -99.5t221.5 99.5t91.5 242.5q0 142 -91 241t-222 99q-130 0 -221.5 -99t-91.5 -241zM61 492q0 102 38 194t110 166q71 72 159.5 109.5t188.5 37.5t190 -37.5t160 -109.5q71 -72 108.5 -165t37.5 -195q0 -104 -37.5 -197.5
t-108.5 -165.5q-70 -72 -160 -109.5t-190 -37.5t-188.5 37.5t-159.5 109.5q-72 73 -110 166t-38 197zM270 1096l197 348h178l197 -348h-107l-178 243l-180 -243h-107z" />
    <glyph glyph-name="odieresis" unicode="&#xf6;" horiz-adv-x="1114" 
d="M244 494q0 -143 91.5 -242.5t221.5 -99.5t221.5 99.5t91.5 242.5q0 142 -91 241t-222 99q-130 0 -221.5 -99t-91.5 -241zM61 492q0 102 38 194t110 166q71 72 159.5 109.5t188.5 37.5t190 -37.5t160 -109.5q71 -72 108.5 -165t37.5 -195q0 -104 -37.5 -197.5
t-108.5 -165.5q-70 -72 -160 -109.5t-190 -37.5t-188.5 37.5t-159.5 109.5q-72 73 -110 166t-38 197zM633 1253q0 40 30 70.5t70 30.5t69 -30t29 -71q0 -42 -28 -71t-70 -29t-71 29t-29 71zM283 1253q0 41 29 71t69 30t70 -30.5t30 -70.5q0 -42 -29 -71t-71 -29t-70 29
t-28 71z" />
    <glyph glyph-name="otilde" unicode="&#xf5;" horiz-adv-x="1114" 
d="M244 494q0 -143 91.5 -242.5t221.5 -99.5t221.5 99.5t91.5 242.5q0 142 -91 241t-222 99q-130 0 -221.5 -99t-91.5 -241zM61 492q0 102 38 194t110 166q71 72 159.5 109.5t188.5 37.5t190 -37.5t160 -109.5q71 -72 108.5 -165t37.5 -195q0 -104 -37.5 -197.5
t-108.5 -165.5q-70 -72 -160 -109.5t-190 -37.5t-188.5 37.5t-159.5 109.5q-72 73 -110 166t-38 197zM848 1364q-24 -93 -75.5 -143t-123.5 -50q-17 1 -32 3t-34 8l-79 26q-12 4 -25.5 6.5t-27.5 2.5q-35 0 -58.5 -15.5t-38.5 -48.5h-88q22 91 72.5 138.5t126.5 47.5
q17 0 32 -2t27 -6l79 -27q21 -6 35.5 -9t24.5 -3q36 0 60 18.5t37 53.5h88z" />
    <glyph glyph-name="uacute" unicode="&#xfa;" horiz-adv-x="1049" 
d="M940 981v-535q0 -214 -113.5 -339t-304.5 -125q-190 0 -303 125t-113 339v535h175v-567q0 -116 68.5 -189t174.5 -73q107 0 174.5 73t67.5 189v567h174zM387 1096l209 348h178l-281 -348h-106z" />
    <glyph glyph-name="ugrave" unicode="&#xf9;" horiz-adv-x="1049" 
d="M940 981v-535q0 -214 -113.5 -339t-304.5 -125q-190 0 -303 125t-113 339v535h175v-567q0 -116 68.5 -189t174.5 -73q107 0 174.5 73t67.5 189v567h174zM661 1096h-106l-281 348h178z" />
    <glyph glyph-name="ucircumflex" unicode="&#xfb;" horiz-adv-x="1049" 
d="M940 981v-535q0 -214 -113.5 -339t-304.5 -125q-190 0 -303 125t-113 339v535h175v-567q0 -116 68.5 -189t174.5 -73q107 0 174.5 73t67.5 189v567h174zM237 1096l197 348h178l197 -348h-107l-178 243l-180 -243h-107z" />
    <glyph glyph-name="udieresis" unicode="&#xfc;" horiz-adv-x="1049" 
d="M940 981v-535q0 -214 -113.5 -339t-304.5 -125q-190 0 -303 125t-113 339v535h175v-567q0 -116 68.5 -189t174.5 -73q107 0 174.5 73t67.5 189v567h174zM600 1253q0 40 30 70.5t70 30.5t69 -30t29 -71q0 -42 -28 -71t-70 -29t-71 29t-29 71zM250 1253q0 41 29 71t69 30
t70 -30.5t30 -70.5q0 -42 -29 -71t-71 -29t-70 29t-28 71z" />
    <glyph glyph-name="dagger" unicode="&#x2020;" 
d="M408 -100v1056h-275v154h275v322h186v-322h274v-154h-274v-1056h-186z" />
    <glyph glyph-name="degree" unicode="&#xb0;" horiz-adv-x="674" 
d="M530 1169q0 81 -55.5 137t-136.5 56t-138 -56t-57 -137t57 -138.5t138 -57.5t136.5 57.5t55.5 138.5zM338 1456q118 0 202.5 -84.5t84.5 -204.5q0 -119 -84 -202.5t-205 -83.5t-204 83t-83 203t84.5 204.5t204.5 84.5z" />
    <glyph glyph-name="cent" unicode="&#xa2;" horiz-adv-x="1114" 
d="M553 51v307q-164 11 -266.5 118t-102.5 265q0 171 100 279t269 119v266h147v-266h131v-160h-131q-165 0 -242 -53.5t-77 -167.5q0 -125 74 -179.5t245 -54.5h131v-166h-131v-307h-147z" />
    <glyph glyph-name="sterling" unicode="&#xa3;" horiz-adv-x="1114" 
d="M14 0v184h52q93 0 144.5 75t51.5 212v221h-121v180h121v101q0 227 116.5 356t321.5 129q59 0 112.5 -9.5t102.5 -29.5l-55 -151q-40 17 -80.5 26t-77.5 9q-119 0 -186 -83.5t-67 -232.5v-115h233v-180h-233v-209q0 -120 -20 -187.5t-67 -111.5h228q143 0 207.5 79
t64.5 255v129h189v-184q0 -221 -102.5 -342t-286.5 -121h-648z" />
    <glyph glyph-name="section" unicode="&#xa7;" 
d="M229 897q-52 45 -78 99t-26 118q0 153 107.5 235.5t308.5 82.5h305v-193h-275q-136 0 -194 -27.5t-58 -89.5q0 -45 39.5 -85.5t165.5 -110.5l203 -113q108 -60 154.5 -116.5t46.5 -127.5q0 -48 -25.5 -91.5t-77.5 -84.5q55 -45 82 -100t27 -121q0 -155 -109.5 -237
t-314.5 -82h-367v190h334q138 0 196 28t58 93q0 73 -171 168q-21 12 -32 18l-202 113q-111 61 -157 117.5t-46 128.5q0 54 26.5 101.5t79.5 86.5zM612 690l-91 51l-13 7q-87 49 -119 49q-33 0 -54.5 -22t-21.5 -56q0 -32 28 -63t89 -66l92 -53q54 -32 83 -44t48 -12
q34 0 56 23t22 57q0 32 -29 63.5t-90 65.5z" />
    <glyph glyph-name="bullet" unicode="&#x2022;" horiz-adv-x="1208" 
d="M307 762q0 123 87 209t210 86q122 0 208.5 -86.5t86.5 -208.5t-87.5 -209.5t-209.5 -87.5q-123 0 -209 87t-86 210z" />
    <glyph glyph-name="paragraph" unicode="&#xb6;" 
d="M958 1393h-120v-1393h-111v1393h-176v-1393h-113v782q-170 8 -271 102.5t-101 245.5q0 157 107.5 253t285.5 96h499v-86z" />
    <glyph glyph-name="germandbls" unicode="&#xdf;" horiz-adv-x="1147" 
d="M123 0v776h-117v166h117v115q0 186 100.5 290.5t278.5 104.5q152 0 251 -83t99 -208q0 -96 -55 -164t-183 -129l148 -63q151 -64 235 -174.5t84 -243.5q0 -182 -127.5 -284.5t-357.5 -102.5h-227v170h239q134 0 212.5 62.5t78.5 168.5q0 86 -56 149t-194 128
q-16 8 -48 22q-183 83 -183 162q0 73 153 154l11 6q44 24 66 55t22 70q0 57 -47 96t-117 39q-104 0 -155.5 -64t-51.5 -194v-1024h-176z" />
    <glyph glyph-name="registered" unicode="&#xae;" horiz-adv-x="1706" 
d="M844 1057h-129v-277h133q113 0 162 31.5t49 101.5q0 76 -51 110t-164 34zM872 1159q174 0 261.5 -57.5t87.5 -171.5q0 -89 -50 -148t-141 -77l187 -381h-177l-170 356h-155v-356h-158v835h315zM1493 721q0 134 -46.5 251t-135.5 206q-92 93 -208.5 141.5t-248.5 48.5
q-130 0 -245 -47t-201 -135q-94 -95 -144.5 -214t-50.5 -245q0 -125 48.5 -240.5t139.5 -207.5q90 -92 206.5 -141.5t240.5 -49.5q130 0 246.5 48t212.5 140q90 88 138 202.5t48 242.5zM852 1464q151 0 286 -56t240 -163q103 -104 158 -238t55 -280q0 -151 -55 -283.5
t-160 -234.5q-109 -106 -244.5 -162.5t-279.5 -56.5q-147 0 -280.5 56.5t-239.5 164.5q-105 106 -160 238.5t-55 277.5q0 146 57.5 282.5t165.5 245.5q101 103 231.5 156t280.5 53z" />
    <glyph glyph-name="copyright" unicode="&#xa9;" horiz-adv-x="1706" 
d="M1053 907q-13 77 -66 118.5t-139 41.5q-105 0 -165 -90.5t-60 -249.5q0 -157 62 -244.5t173 -87.5q82 0 136.5 47t68.5 129h145q-9 -130 -107.5 -211t-248.5 -81q-182 0 -285.5 120t-103.5 334q0 200 109 322.5t286 122.5q142 0 236.5 -75t105.5 -196h-147zM1493 727
q0 130 -47.5 246.5t-136.5 206.5q-93 92 -209 140t-246 48q-129 0 -243.5 -47t-204.5 -137q-93 -93 -143 -211.5t-50 -245.5q0 -126 49 -242t141 -209q92 -91 207.5 -139.5t243.5 -48.5q125 0 242 49t213 142q90 88 137 202.5t47 245.5zM852 1464q152 0 285.5 -54.5
t238.5 -160.5q104 -103 159.5 -238.5t55.5 -283.5q0 -149 -54.5 -281.5t-158.5 -234.5q-110 -107 -245.5 -164t-280.5 -57t-278.5 56t-239.5 163q-106 105 -161.5 238.5t-55.5 279.5q0 147 56 281.5t163 242.5q104 104 236 158.5t280 54.5z" />
    <glyph glyph-name="trademark" unicode="&#x2122;" horiz-adv-x="1706" 
d="M963 1458l151 -385l141 385h150v-538h-98v444l-166 -444h-56l-174 444v-444h-98v538h150zM694 1458v-80h-172v-458h-108v458h-172v80h452z" />
    <glyph glyph-name="acute" unicode="&#xb4;" 
d="M375 1096l209 348h178l-281 -348h-106z" />
    <glyph glyph-name="dieresis" unicode="&#xa8;" 
d="M588 1253q0 40 30 70.5t70 30.5t69 -30t29 -71q0 -42 -28 -71t-70 -29t-71 29t-29 71zM238 1253q0 41 29 71t69 30t70 -30.5t30 -70.5q0 -42 -29 -71t-71 -29t-70 29t-28 71z" />
    <glyph glyph-name="notequal" unicode="&#x2260;" horiz-adv-x="1706" 
d="M1313 1112l-187 -235h326v-136h-416l-205 -262h621v-135h-709l-249 -317l-105 84l184 233h-319v135h408l204 262h-612v136h702l252 317z" />
    <glyph glyph-name="AE" unicode="&#xc6;" horiz-adv-x="1892" 
d="M1796 0h-27h-49q-204 0 -355.5 55t-256.5 168v-223h-186v653h-557v170h557v72q0 187 -79.5 286t-228.5 99t-228 -99t-79 -286v-895h-190v899q0 256 135.5 406.5t361.5 150.5q149 0 267 -78t184 -221q107 140 271.5 208.5t392.5 68.5q11 0 33.5 -1t33.5 -1v-170
q-11 0 -32 1t-31 1q-269 0 -425.5 -111.5t-195.5 -329.5h684v-170h-694q35 -237 192 -359t426 -122q31 0 46.5 0.5t29.5 1.5v-174z" />
    <glyph glyph-name="Oslash" unicode="&#xd8;" horiz-adv-x="1583" 
d="M459 281q70 -61 154.5 -92t181.5 -31q102 0 195 38.5t165 110.5q82 80 125 186.5t43 227.5q0 95 -28 180t-85 162zM371 377l749 784q-73 60 -154.5 89.5t-172.5 29.5q-110 0 -208 -43.5t-173 -124.5q-74 -79 -112 -178.5t-38 -210.5q0 -98 27.5 -185t81.5 -161zM123 -72
l-98 90l213 220q-85 104 -127.5 226t-42.5 259q0 146 55 280t158 238q102 104 232.5 159.5t272.5 55.5q126 0 242 -41t219 -123l199 209l98 -90l-203 -211q89 -111 133 -231.5t44 -251.5q0 -146 -51 -277.5t-148 -234.5q-104 -111 -239 -170.5t-285 -59.5q-128 0 -244 42.5
t-219 127.5z" />
    <glyph glyph-name="infinity" unicode="&#x221e;" horiz-adv-x="1706" 
d="M915 559q49 -88 116 -133t151 -45q101 0 165 67.5t64 172.5q0 101 -59 168t-148 67q-82 0 -148.5 -67.5t-140.5 -229.5zM793 666q-49 88 -115.5 132t-151.5 44q-102 0 -165.5 -66t-63.5 -172q0 -101 59 -168t148 -67q82 0 149 68t140 229zM864 483
q-70 -135 -148.5 -198.5t-172.5 -63.5q-136 0 -229 111.5t-93 277.5q0 175 83.5 283t217.5 108q95 0 171.5 -63t148.5 -201q68 138 147 203.5t176 65.5q134 0 228 -112.5t94 -279.5q0 -175 -83.5 -282t-217.5 -107q-94 0 -168.5 59.5t-153.5 198.5z" />
    <glyph glyph-name="plusminus" unicode="&#xb1;" horiz-adv-x="1706" 
d="M1452 170v-141h-1198v141h1198zM924 1192v-340h528v-139h-528v-340h-142v340h-528v139h528v340h142z" />
    <glyph glyph-name="lessequal" unicode="&#x2264;" horiz-adv-x="1706" 
d="M1446 162v-139h-1184v139h1184zM1444 1059l-936 -309l936 -306v-149l-1182 395v121l1182 395v-147z" />
    <glyph glyph-name="greaterequal" unicode="&#x2265;" horiz-adv-x="1706" 
d="M1446 162v-139h-1184v139h1184zM1446 811v-121l-1184 -395v149l938 306l-938 309v147z" />
    <glyph glyph-name="yen" unicode="&#xa5;" horiz-adv-x="1139" 
d="M862 963h232v-95h-277l-76 -153h353v-94h-398l-34 -72v-549h-185v549l-35 72h-399v94h352l-76 153h-276v95h229l-229 469h184l342 -697l342 697h183z" />
    <glyph glyph-name="mu" unicode="&#xb5;" horiz-adv-x="1151" 
d="M385 1071l-129 -600q-7 -32 -10.5 -64.5t-3.5 -68.5q0 -99 52 -153t148 -54q132 0 208.5 92.5t123.5 311.5l115 536h178l-156 -732q-1 -6 -4 -20q-18 -87 -18 -112q0 -37 16.5 -52.5t55.5 -15.5q12 0 18.5 0.5t13.5 1.5l-31 -143q-24 -5 -50 -7.5t-58 -2.5q-63 0 -97 29
t-52 100q-45 -66 -112.5 -98.5t-158.5 -32.5q-82 0 -143 27.5t-113 88.5l-110 -530h-181l318 1499h180z" />
    <glyph glyph-name="partialdiff" unicode="&#x2202;" horiz-adv-x="1059" 
d="M756 621q15 87 22.5 168.5t7.5 156.5q0 129 -36.5 194.5t-108.5 65.5q-55 0 -127 -58t-108 -58t-60 22t-24 53q0 62 72 111t173 49q180 0 287 -155t107 -418q0 -335 -144.5 -556t-357.5 -221q-152 0 -253.5 108t-101.5 271q0 198 110.5 326.5t272.5 128.5
q101 0 166 -45.5t103 -142.5zM707 494q0 116 -43.5 178.5t-122.5 62.5q-109 0 -179.5 -129t-70.5 -336q0 -116 43 -177.5t123 -61.5q109 0 179.5 130t70.5 333z" />
    <glyph glyph-name="summation" unicode="&#x2211;" horiz-adv-x="1380" 
d="M55 1473h1258v-193h-959l672 -717l-694 -764h1007v-192h-1314v149l725 801l-695 739v177z" />
    <glyph glyph-name="product" unicode="&#x220f;" horiz-adv-x="1550" 
d="M156 1473h1237v-1866h-240v1661h-758v-1661h-239v1866z" />
    <glyph glyph-name="pi" unicode="&#x3c0;" horiz-adv-x="1206" 
d="M1159 913h-182l-105 -487q-15 -74 -22.5 -120t-7.5 -68q0 -58 23.5 -82.5t78.5 -24.5q17 0 40 2.5t60 7.5l-30 -141q-30 -8 -57.5 -12t-53.5 -4q-118 0 -178.5 51t-60.5 151q0 46 10.5 118t44.5 233l80 376h-326l-194 -913h-181l195 913h-41q-54 0 -84 -32t-39 -101h-160
q28 166 99.5 228.5t236.5 62.5h889z" />
    <glyph glyph-name="integral" unicode="&#x222b;" horiz-adv-x="1067" 
d="M311 -262q106 0 120 688q2 108 3 165q12 515 107 737t297 222q80 0 130 -42t50 -107q0 -54 -32 -85.5t-87 -31.5q-42 0 -70 19t-40 54q-6 15 -10.5 51t-20.5 36q-107 0 -121 -619q-4 -193 -8 -303q-17 -479 -111.5 -686t-290.5 -207q-79 0 -129.5 41.5t-50.5 106.5
q0 56 34 87.5t95 31.5q33 0 57 -14.5t39 -42.5q10 -18 15 -59.5t24 -41.5z" />
    <glyph glyph-name="ordfeminine" unicode="&#xaa;" horiz-adv-x="864" 
d="M653 745v342q0 109 -65 175.5t-170 66.5q-104 0 -170 -66t-66 -171q0 -107 68 -174.5t174 -67.5q48 0 93 15.5t91 47.5v-131q-44 -24 -93.5 -36.5t-104.5 -12.5q-52 0 -104 15t-95 43q-79 51 -121.5 128.5t-42.5 170.5q0 155 104.5 255.5t264.5 100.5q105 0 193.5 -50
t135.5 -136q21 -39 30 -84t9 -142v-289h-131z" />
    <glyph glyph-name="ordmasculine" unicode="&#xba;" horiz-adv-x="836" 
d="M182 1092q0 -101 69 -170.5t167 -69.5t166.5 69.5t68.5 170.5q0 99 -68.5 168t-166.5 69t-167 -69t-69 -168zM47 1090q0 73 28 137.5t83 113.5q52 52 118.5 78.5t141.5 26.5t142.5 -27t119.5 -78q54 -50 82.5 -115t28.5 -136q0 -73 -29 -138.5t-82 -115.5
q-52 -50 -119 -76.5t-143 -26.5t-142 26t-118 77q-55 51 -83 115.5t-28 138.5z" />
    <glyph glyph-name="Omega" unicode="&#x3a9;" horiz-adv-x="1565" 
d="M1487 178v-178h-600v178q177 97 276 263t99 368q0 240 -132 385t-348 145t-348.5 -145.5t-132.5 -384.5q0 -202 99.5 -368t277.5 -263v-178h-600v178h319q-158 139 -230.5 288t-72.5 333q0 318 191.5 515t496.5 197q303 0 495.5 -196.5t192.5 -505.5q0 -194 -71 -342
t-232 -289h320z" />
    <glyph glyph-name="ae" unicode="&#xe6;" horiz-adv-x="1804" 
d="M751 553q-258 -41 -389 -109.5t-131 -162.5q0 -61 49.5 -99.5t129.5 -38.5q155 0 250.5 94.5t95.5 249.5q0 11 -1 25t-4 41zM1745 434q-36 -211 -169.5 -332.5t-328.5 -121.5q-123 0 -227.5 57t-179.5 166q-70 -110 -180 -166.5t-252 -56.5q-162 0 -261.5 84t-99.5 219
q0 157 159 261.5t488 164.5q-37 57 -100 86.5t-148 29.5q-61 0 -132 -21t-167 -69l-79 137q96 61 195 91t202 30q129 0 226.5 -51t162.5 -154q70 102 172 156.5t223 54.5q164 0 284 -88t169 -245l-633 -265l-57 144l458 192q-44 49 -99 74t-120 25q-132 0 -222.5 -98.5
t-90.5 -243.5q0 -144 91 -243t222 -99q125 0 210 82.5t106 226.5z" />
    <glyph glyph-name="oslash" unicode="&#xf8;" horiz-adv-x="1114" 
d="M295 307l442 467q-43 31 -87 46.5t-91 15.5q-129 0 -222 -100t-93 -240q0 -56 12.5 -102.5t38.5 -86.5zM23 20l145 154q-53 70 -80 148.5t-27 166.5q0 102 36.5 193.5t105.5 163.5q72 75 163.5 115t190.5 40q82 0 157 -26.5t140 -79.5l139 145l88 -84l-139 -145
q56 -73 83.5 -152t27.5 -167q0 -220 -146.5 -365t-369.5 -145q-74 0 -144.5 26t-138.5 78l-143 -149zM819 682l-444 -467q38 -30 83.5 -45.5t96.5 -15.5q136 0 225.5 96.5t89.5 243.5q0 51 -12.5 97.5t-38.5 90.5z" />
    <glyph glyph-name="questiondown" unicode="&#xbf;" 
d="M662 1337q0 -49 -34.5 -83.5t-84.5 -34.5t-84.5 34.5t-34.5 83.5t35 84t84 35t84 -35t35 -84zM465 795v307h174v-452q-10 0 -23 0.5t-36 0.5q-147 0 -228.5 -64.5t-81.5 -180.5q0 -107 68 -174.5t176 -67.5q111 0 177 70.5t69 191.5h182q-3 -199 -123.5 -320.5
t-314.5 -121.5q-189 0 -310.5 120t-121.5 306q0 170 103.5 271t289.5 114z" />
    <glyph glyph-name="exclamdown" unicode="&#xa1;" horiz-adv-x="557" 
d="M369 1092v-1106h-181v1106h181zM397 1313q0 -50 -34 -83.5t-84 -33.5q-51 0 -85 33.5t-34 83.5q0 49 34.5 84t84.5 35q49 0 83.5 -35t34.5 -84z" />
    <glyph glyph-name="logicalnot" unicode="&#xac;" horiz-adv-x="1706" 
d="M1452 860v-502h-137v363h-1061v139h1198z" />
    <glyph glyph-name="radical" unicode="&#x221a;" horiz-adv-x="1305" 
d="M1116 1661h189v-96h-115l-594 -1606h-66l-319 883l-125 -45l-25 80l283 98l256 -709z" />
    <glyph glyph-name="florin" unicode="&#x192;" horiz-adv-x="1114" 
d="M461 -166q-25 -133 -101.5 -201.5t-201.5 -68.5h-246v170h229q53 0 85 32t44 97l160 854h-256v170h283l65 293q29 135 101 202.5t186 67.5h209v-170h-178q-55 0 -84 -29t-45 -100l-58 -264h277v-170h-305z" />
    <glyph glyph-name="approxequal" unicode="&#x2248;" horiz-adv-x="1706" 
d="M1530 430q-105 -73 -199.5 -107t-189.5 -34t-285 67.5t-293 67.5q-82 0 -171.5 -36t-213.5 -122v156q108 73 204 109t183 36q115 0 305 -68.5t273 -68.5q88 0 177 35.5t210 120.5v-156zM1530 799q-105 -73 -199.5 -107.5t-189.5 -34.5t-285 68t-293 68q-83 0 -171.5 -36
t-213.5 -122v156q106 72 202 107.5t185 35.5q116 0 305.5 -67.5t272.5 -67.5q87 0 175 34.5t212 120.5v-155z" />
    <glyph glyph-name="Delta" unicode="&#x2206;" horiz-adv-x="1370" 
d="M684 1262l-418 -1084h836zM573 1473h224l579 -1473h-1382z" />
    <glyph glyph-name="guillemotleft" unicode="&#xab;" horiz-adv-x="1042" 
d="M928 184h-162l-250 322l250 317h162l-250 -317zM553 184h-162l-250 322l250 317h162l-248 -317z" />
    <glyph glyph-name="guillemotright" unicode="&#xbb;" horiz-adv-x="1042" 
d="M489 184l250 322l-250 317h162l252 -317l-252 -322h-162zM115 184l250 322l-250 317h161l252 -317l-252 -322h-161z" />
    <glyph glyph-name="ellipsis" unicode="&#x2026;" horiz-adv-x="2048" 
d="M223 102q0 50 34 84.5t85 34.5q50 0 84 -34.5t34 -84.5q0 -48 -34.5 -82t-83.5 -34q-50 0 -84.5 34t-34.5 82zM905 102q0 50 34 84.5t85 34.5q50 0 84 -34.5t34 -84.5q0 -48 -34.5 -82t-83.5 -34q-50 0 -84.5 34t-34.5 82zM1590 102q0 50 34 84.5t85 34.5q50 0 84 -34.5
t34 -84.5q0 -48 -34.5 -82t-83.5 -34q-50 0 -84.5 34t-34.5 82z" />
    <glyph glyph-name="nonbreakingspace" unicode="&#xa0;" horiz-adv-x="1114" 
 />
    <glyph glyph-name="Agrave" unicode="&#xc0;" horiz-adv-x="1229" 
d="M922 0v657h-557v181h557v57q0 187 -79.5 286t-228.5 99t-228 -99t-79 -286v-895h-190v899q0 256 135.5 406.5t361.5 150.5t362 -150.5t136 -406.5v-899h-190zM751 1567h-106l-281 348h178z" />
    <glyph glyph-name="Atilde" unicode="&#xc3;" horiz-adv-x="1229" 
d="M922 0v657h-557v181h557v57q0 187 -79.5 286t-228.5 99t-228 -99t-79 -286v-895h-190v899q0 256 135.5 406.5t361.5 150.5t362 -150.5t136 -406.5v-899h-190zM905 1835q-24 -93 -75.5 -143t-123.5 -50q-17 1 -32 3t-34 8l-79 26q-12 4 -25.5 6.5t-27.5 2.5
q-35 0 -58.5 -15.5t-38.5 -48.5h-88q22 91 72.5 138.5t126.5 47.5q17 0 32 -2t27 -6l79 -27q21 -6 35.5 -9t24.5 -3q36 0 60 18.5t37 53.5h88z" />
    <glyph glyph-name="Otilde" unicode="&#xd5;" horiz-adv-x="1583" 
d="M66 717q0 150 54.5 283.5t160.5 240.5q103 105 234.5 160t277.5 55q144 0 276 -56t236 -161q104 -106 158.5 -239.5t54.5 -282.5q0 -150 -55 -284.5t-158 -239.5q-104 -106 -236 -162t-276 -56q-146 0 -277.5 55.5t-234.5 159.5q-106 108 -160.5 242t-54.5 285zM260 719
q0 -116 40.5 -217.5t117.5 -182.5q76 -79 173 -121t202 -42q106 0 201.5 42t170.5 121q77 82 117.5 184t40.5 216q0 113 -40 214t-118 183q-75 80 -170.5 122t-201.5 42t-203 -41.5t-172 -120.5q-78 -82 -118 -183.5t-40 -215.5zM1084 1835q-24 -93 -75.5 -143t-123.5 -50
q-17 1 -32 3t-34 8l-79 26q-12 4 -25.5 6.5t-27.5 2.5q-35 0 -58.5 -15.5t-38.5 -48.5h-88q22 91 72.5 138.5t126.5 47.5q17 0 32 -2t27 -6l79 -27q21 -6 35.5 -9t24.5 -3q36 0 60 18.5t37 53.5h88z" />
    <glyph glyph-name="OE" unicode="&#x152;" horiz-adv-x="2290" 
d="M2207 174l1 -174h-25h-49q-258 0 -432.5 85.5t-284.5 266.5q-103 -181 -265.5 -279t-360.5 -98q-98 0 -190.5 25.5t-172.5 75.5q-173 105 -267.5 272.5t-94.5 368.5q0 148 54.5 281.5t158.5 240.5q104 106 235.5 161.5t276.5 55.5q196 0 358 -97.5t270 -281.5
q103 181 279.5 269t437.5 88q29 0 43.5 -0.5t28.5 -2.5v-169q-14 1 -28 1.5t-42 0.5q-261 0 -415.5 -110.5t-200.5 -330.5h686v-170h-695q36 -237 193 -359t426 -122q30 0 45.5 0.5t29.5 1.5zM260 719q0 -116 40.5 -217.5t117.5 -182.5q76 -79 173 -121t202 -42
q106 0 201.5 42t170.5 121q77 82 117.5 184t40.5 216q0 113 -40 214t-118 183q-75 80 -170.5 122t-201.5 42t-203 -41.5t-172 -120.5q-78 -82 -118 -183.5t-40 -215.5z" />
    <glyph glyph-name="oe" unicode="&#x153;" horiz-adv-x="1911" 
d="M1851 434q-36 -211 -168.5 -332.5t-324.5 -121.5q-121 0 -220 53t-180 162q-84 -110 -183 -162.5t-218 -52.5q-99 0 -189 38t-161 111q-70 72 -108 165.5t-38 197.5q0 102 37.5 195t108.5 165q68 71 158.5 109t191.5 38q122 0 222.5 -54t178.5 -161q77 105 175.5 160
t209.5 55q157 0 278 -77.5t196 -227.5l-641 -356l-76 133l477 266q-44 48 -98.5 72.5t-120.5 24.5q-133 0 -223.5 -97.5t-90.5 -242.5q0 -144 91.5 -243t222.5 -99q125 0 209.5 82.5t105.5 226.5zM244 494q0 -143 91.5 -242.5t221.5 -99.5t221.5 99.5t91.5 242.5
q0 142 -91 241t-222 99q-130 0 -221.5 -99t-91.5 -241z" />
    <glyph glyph-name="endash" unicode="&#x2013;" 
d="M0 420v149h1024v-149h-1024z" />
    <glyph glyph-name="emdash" unicode="&#x2014;" horiz-adv-x="2048" 
d="M0 569h2048v-149h-2048v149z" />
    <glyph glyph-name="quotedblleft" unicode="&#x201c;" horiz-adv-x="862" 
d="M733 1432l-80 -396h-166l113 396h133zM430 1432l-82 -396h-164l111 396h135z" />
    <glyph glyph-name="quotedblright" unicode="&#x201d;" horiz-adv-x="862" 
d="M487 1036l80 396h166l-112 -396h-134zM180 1036l82 396h164l-111 -396h-135z" />
    <glyph glyph-name="quoteleft" unicode="&#x2018;" horiz-adv-x="557" 
d="M430 1432l-82 -396h-164l111 396h135z" />
    <glyph glyph-name="quoteright" unicode="&#x2019;" horiz-adv-x="557" 
d="M180 1036l82 396h164l-111 -396h-135z" />
    <glyph glyph-name="divide" unicode="&#xf7;" horiz-adv-x="1706" 
d="M854 367q51 0 88 -37t37 -88q0 -52 -36.5 -88.5t-88.5 -36.5q-53 0 -89 36t-36 89q0 51 37 88t88 37zM1452 680v-139h-1198v139h1198zM854 1106q51 0 88 -37.5t37 -89.5q0 -51 -36.5 -88t-88.5 -37t-88.5 36.5t-36.5 88.5t37 89.5t88 37.5z" />
    <glyph glyph-name="lozenge" unicode="&#x25ca;" horiz-adv-x="1012" 
d="M506 1409l-385 -817l385 -825l385 825zM506 1653l500 -1061l-500 -1069l-500 1069z" />
    <glyph glyph-name="ydieresis" unicode="&#xff;" horiz-adv-x="1049" 
d="M940 981v-535q0 -188 -82 -301.5t-248 -154.5v-426h-176v426q-166 41 -247 154t-81 302v535h175v-567q0 -116 68.5 -189t174.5 -73q107 0 174.5 73t67.5 189v567h174zM600 1253q0 40 30 70.5t70 30.5t69 -30t29 -71q0 -42 -28 -71t-70 -29t-71 29t-29 71zM250 1253
q0 41 29 71t69 30t70 -30.5t30 -70.5q0 -42 -29 -71t-71 -29t-70 29t-28 71z" />
    <glyph glyph-name="Ydieresis" unicode="&#x178;" horiz-adv-x="1110" 
d="M461 0v549q-177 45 -267 169t-90 324v390h191v-392q0 -157 67 -241t193 -84t193 84t67 241v392h191v-390q0 -200 -90 -324t-267 -169v-549h-188zM631 1724q0 40 30 70.5t70 30.5t69 -30t29 -71q0 -42 -28 -71t-70 -29t-71 29t-29 71zM281 1724q0 41 29 71t69 30t70 -30.5
t30 -70.5q0 -42 -29 -71t-71 -29t-70 29t-28 71z" />
    <glyph glyph-name="fraction" unicode="&#x2215;" horiz-adv-x="342" 
d="M-342 0l887 1432h137l-877 -1432h-147z" />
    <glyph glyph-name="currency" unicode="&#xa4;" horiz-adv-x="1114" 
d="M1069 0h-76q-343 0 -546 150t-244 434h-187l23 80h158q0 7 -1 25t-1 28q0 15 0.5 33t2.5 49h-182l23 80h170q50 271 251.5 412t538.5 141h70v-172h-86q-248 0 -391.5 -95.5t-183.5 -285.5h575l-22 -80h-570q0 -8 -2 -26q-4 -37 -4 -56q0 -23 0.5 -33.5t1.5 -19.5h539
l-23 -80h-502q37 -198 189.5 -305t396.5 -107h82v-172z" />
    <glyph glyph-name="guilsinglleft" unicode="&#x2039;" horiz-adv-x="668" 
d="M553 184h-162l-250 322l250 317h162l-248 -317z" />
    <glyph glyph-name="guilsinglright" unicode="&#x203a;" horiz-adv-x="668" 
d="M115 184l250 322l-250 317h161l252 -317l-252 -322h-161z" />
    <glyph glyph-name="fi" unicode="&#xf001;" horiz-adv-x="1044" 
d="M750 0v981h176v-981h-176zM729 1260q0 44 32 75t77 31t75.5 -30.5t30.5 -75.5q0 -46 -31 -77.5t-75 -31.5q-45 0 -77 32t-32 77zM121 0v1067q0 183 103 274t311 91h106v-168h-102q-127 0 -185.5 -55t-58.5 -173v-55h346v-166h-346v-815h-174z" />
    <glyph glyph-name="fl" unicode="&#xf002;" horiz-adv-x="1044" 
d="M750 0v1432h176v-1432h-176zM121 0v1067q0 183 103 274t311 91h106v-168h-102q-127 0 -185.5 -55t-58.5 -173v-55h346v-166h-346v-815h-174z" />
    <glyph glyph-name="daggerdbl" unicode="&#x2021;" 
d="M600 -100h-176v477h-285v153h285v426h-285v154h285v322h176v-322h285v-154h-285v-426h285v-153h-285v-477z" />
    <glyph glyph-name="periodcentered" unicode="&#xb7;" horiz-adv-x="557" 
d="M160 729q0 50 34 84.5t85 34.5q50 0 84 -34.5t34 -84.5q0 -49 -34.5 -83t-83.5 -34q-50 0 -84.5 34t-34.5 83z" />
    <glyph glyph-name="quotesinglbase" unicode="&#x201a;" horiz-adv-x="557" 
d="M129 -205l82 398h164l-111 -398h-135z" />
    <glyph glyph-name="quotedblbase" unicode="&#x201e;" horiz-adv-x="862" 
d="M436 -205l80 398h166l-113 -398h-133zM129 -205l82 398h164l-111 -398h-135z" />
    <glyph glyph-name="perthousand" unicode="&#x2030;" horiz-adv-x="2456" 
d="M952 322q0 135 94.5 229t229.5 94t228 -94t93 -229q0 -136 -93 -229t-228 -93t-229.5 93.5t-94.5 228.5zM1110 322q0 -68 49 -116t117 -48q67 0 115.5 48t48.5 116q0 69 -47.5 117t-116.5 48t-117.5 -48t-48.5 -117zM1884 322q0 -68 49 -116t117 -48t116 48t48 116
q0 69 -47.5 117t-116.5 48t-117.5 -48t-48.5 -117zM1726 322q0 135 94.5 229t229.5 94t228.5 -94t93.5 -229q0 -136 -93.5 -229t-228.5 -93t-229.5 93.5t-94.5 228.5zM92 1110q0 135 93.5 228.5t228.5 93.5t229 -93.5t94 -228.5t-94 -229.5t-229 -94.5t-228.5 94.5
t-93.5 229.5zM250 1110q0 -68 48 -116t116 -48t117 48.5t49 115.5q0 69 -48.5 116.5t-117.5 47.5t-116.5 -47.5t-47.5 -116.5zM301 0l932 1432h131l-922 -1432h-141z" />
    <glyph glyph-name="Acircumflex" unicode="&#xc2;" horiz-adv-x="1229" 
d="M922 0v657h-557v181h557v57q0 187 -79.5 286t-228.5 99t-228 -99t-79 -286v-895h-190v899q0 256 135.5 406.5t361.5 150.5t362 -150.5t136 -406.5v-899h-190zM327 1567l197 348h178l197 -348h-107l-178 243l-180 -243h-107z" />
    <glyph glyph-name="Ecircumflex" unicode="&#xca;" horiz-adv-x="1040" 
d="M958 1262q-12 1 -25 1.5t-38 0.5q-266 0 -421 -110.5t-200 -330.5h684v-170h-694q36 -238 193 -359.5t430 -121.5q29 0 44 0.5t27 1.5v-174h-55q-159 0 -280 25t-203 75q-172 105 -262 262.5t-90 354.5q0 196 90 353t262 261q82 50 203 75.5t280 25.5h55v-170zM395 1567
l197 348h178l197 -348h-107l-178 243l-180 -243h-107z" />
    <glyph glyph-name="Aacute" unicode="&#xc1;" horiz-adv-x="1229" 
d="M922 0v657h-557v181h557v57q0 187 -79.5 286t-228.5 99t-228 -99t-79 -286v-895h-190v899q0 256 135.5 406.5t361.5 150.5t362 -150.5t136 -406.5v-899h-190zM477 1567l209 348h178l-281 -348h-106z" />
    <glyph glyph-name="Edieresis" unicode="&#xcb;" horiz-adv-x="1040" 
d="M958 1262q-12 1 -25 1.5t-38 0.5q-266 0 -421 -110.5t-200 -330.5h684v-170h-694q36 -238 193 -359.5t430 -121.5q29 0 44 0.5t27 1.5v-174h-55q-159 0 -280 25t-203 75q-172 105 -262 262.5t-90 354.5q0 196 90 353t262 261q82 50 203 75.5t280 25.5h55v-170zM758 1724
q0 40 30 70.5t70 30.5t69 -30t29 -71q0 -42 -28 -71t-70 -29t-71 29t-29 71zM408 1724q0 41 29 71t69 30t70 -30.5t30 -70.5q0 -42 -29 -71t-71 -29t-70 29t-28 71z" />
    <glyph glyph-name="Egrave" unicode="&#xc8;" horiz-adv-x="1040" 
d="M958 1262q-12 1 -25 1.5t-38 0.5q-266 0 -421 -110.5t-200 -330.5h684v-170h-694q36 -238 193 -359.5t430 -121.5q29 0 44 0.5t27 1.5v-174h-55q-159 0 -280 25t-203 75q-172 105 -262 262.5t-90 354.5q0 196 90 353t262 261q82 50 203 75.5t280 25.5h55v-170zM819 1567
h-106l-281 348h178z" />
    <glyph glyph-name="Iacute" unicode="&#xcd;" horiz-adv-x="465" 
d="M137 0v1432h191v-1432h-191zM96 1567l209 348h178l-281 -348h-106z" />
    <glyph glyph-name="Icircumflex" unicode="&#xce;" horiz-adv-x="465" 
d="M137 0v1432h191v-1432h-191zM-54 1567l197 348h178l197 -348h-107l-178 243l-180 -243h-107z" />
    <glyph glyph-name="Idieresis" unicode="&#xcf;" horiz-adv-x="465" 
d="M137 0v1432h191v-1432h-191zM309 1724q0 40 30 70.5t70 30.5t69 -30t29 -71q0 -42 -28 -71t-70 -29t-71 29t-29 71zM-41 1724q0 41 29 71t69 30t70 -30.5t30 -70.5q0 -42 -29 -71t-71 -29t-70 29t-28 71z" />
    <glyph glyph-name="Igrave" unicode="&#xcc;" horiz-adv-x="465" 
d="M137 0v1432h191v-1432h-191zM370 1567h-106l-281 348h178z" />
    <glyph glyph-name="Oacute" unicode="&#xd3;" horiz-adv-x="1583" 
d="M66 717q0 150 54.5 283.5t160.5 240.5q103 105 234.5 160t277.5 55q144 0 276 -56t236 -161q104 -106 158.5 -239.5t54.5 -282.5q0 -150 -55 -284.5t-158 -239.5q-104 -106 -236 -162t-276 -56q-146 0 -277.5 55.5t-234.5 159.5q-106 108 -160.5 242t-54.5 285zM260 719
q0 -116 40.5 -217.5t117.5 -182.5q76 -79 173 -121t202 -42q106 0 201.5 42t170.5 121q77 82 117.5 184t40.5 216q0 113 -40 214t-118 183q-75 80 -170.5 122t-201.5 42t-203 -41.5t-172 -120.5q-78 -82 -118 -183.5t-40 -215.5zM656 1567l209 348h178l-281 -348h-106z" />
    <glyph glyph-name="Ocircumflex" unicode="&#xd4;" horiz-adv-x="1583" 
d="M66 717q0 150 54.5 283.5t160.5 240.5q103 105 234.5 160t277.5 55q144 0 276 -56t236 -161q104 -106 158.5 -239.5t54.5 -282.5q0 -150 -55 -284.5t-158 -239.5q-104 -106 -236 -162t-276 -56q-146 0 -277.5 55.5t-234.5 159.5q-106 108 -160.5 242t-54.5 285zM260 719
q0 -116 40.5 -217.5t117.5 -182.5q76 -79 173 -121t202 -42q106 0 201.5 42t170.5 121q77 82 117.5 184t40.5 216q0 113 -40 214t-118 183q-75 80 -170.5 122t-201.5 42t-203 -41.5t-172 -120.5q-78 -82 -118 -183.5t-40 -215.5zM506 1567l197 348h178l197 -348h-107
l-178 243l-180 -243h-107z" />
    <glyph glyph-name="apple" unicode="&#xf000;" horiz-adv-x="1618" 
d="M836 1216q-1 6 -1.5 14t-0.5 23q0 124 95 229.5t236 131.5q1 -10 1.5 -23t0.5 -39q0 -131 -103.5 -234.5t-203.5 -103.5h-8q-3 0 -7.5 1t-8.5 1zM1505 403q-114 -247 -205 -342.5t-204 -95.5q-50 0 -131.5 33t-122.5 33q-45 0 -131 -33t-127 -33q-64 0 -128.5 44
t-129.5 132q-102 140 -157.5 295.5t-55.5 300.5q0 219 125 356.5t323 137.5q68 0 155 -34t124 -34q34 0 121.5 35t152.5 35q110 0 198 -40t161 -124q-102 -65 -151.5 -145.5t-49.5 -182.5q0 -113 60 -200t173 -138z" />
    <glyph glyph-name="Ograve" unicode="&#xd2;" horiz-adv-x="1583" 
d="M66 717q0 150 54.5 283.5t160.5 240.5q103 105 234.5 160t277.5 55q144 0 276 -56t236 -161q104 -106 158.5 -239.5t54.5 -282.5q0 -150 -55 -284.5t-158 -239.5q-104 -106 -236 -162t-276 -56q-146 0 -277.5 55.5t-234.5 159.5q-106 108 -160.5 242t-54.5 285zM260 719
q0 -116 40.5 -217.5t117.5 -182.5q76 -79 173 -121t202 -42q106 0 201.5 42t170.5 121q77 82 117.5 184t40.5 216q0 113 -40 214t-118 183q-75 80 -170.5 122t-201.5 42t-203 -41.5t-172 -120.5q-78 -82 -118 -183.5t-40 -215.5zM930 1567h-106l-281 348h178z" />
    <glyph glyph-name="Uacute" unicode="&#xda;" horiz-adv-x="1229" 
d="M307 1432v-891q0 -187 79 -286t228 -99t228.5 99t79.5 286v891h190v-900q0 -255 -136 -406t-362 -151t-361.5 151t-135.5 406v900h190zM477 1567l209 348h178l-281 -348h-106z" />
    <glyph glyph-name="Ucircumflex" unicode="&#xdb;" horiz-adv-x="1229" 
d="M307 1432v-891q0 -187 79 -286t228 -99t228.5 99t79.5 286v891h190v-900q0 -255 -136 -406t-362 -151t-361.5 151t-135.5 406v900h190zM327 1567l197 348h178l197 -348h-107l-178 243l-180 -243h-107z" />
    <glyph glyph-name="Ugrave" unicode="&#xd9;" horiz-adv-x="1229" 
d="M307 1432v-891q0 -187 79 -286t228 -99t228.5 99t79.5 286v891h190v-900q0 -255 -136 -406t-362 -151t-361.5 151t-135.5 406v900h190zM751 1567h-106l-281 348h178z" />
    <glyph glyph-name="dotlessi" unicode="&#x131;" horiz-adv-x="418" 
d="M121 0v981h176v-981h-176z" />
    <glyph glyph-name="circumflex" unicode="&#x2c6;" 
d="M225 1096l197 348h178l197 -348h-107l-178 243l-180 -243h-107z" />
    <glyph glyph-name="tilde" unicode="&#x2dc;" 
d="M803 1364q-24 -93 -75.5 -143t-123.5 -50q-17 1 -32 3t-34 8l-79 26q-12 4 -25.5 6.5t-27.5 2.5q-35 0 -58.5 -15.5t-38.5 -48.5h-88q22 91 72.5 138.5t126.5 47.5q17 0 32 -2t27 -6l79 -27q21 -6 35.5 -9t24.5 -3q36 0 60 18.5t37 53.5h88z" />
    <glyph glyph-name="macron" unicode="&#xaf;" 
d="M254 1190v127h516v-127h-516z" />
    <glyph glyph-name="breve" unicode="&#x2d8;" 
d="M230 1405h89q7 -76 52.5 -110.5t140.5 -34.5t140.5 34.5t52.5 110.5h90q-11 -141 -79 -205.5t-204 -64.5t-204.5 65.5t-77.5 204.5z" />
    <glyph glyph-name="dotaccent" unicode="&#x2d9;" 
d="M412 1270q0 39 30 68.5t70 29.5t70 -29.5t30 -68.5q0 -43 -29 -72t-71 -29t-71 29t-29 72z" />
    <glyph glyph-name="ring" unicode="&#x2da;" 
d="M371 1339q0 -60 40.5 -101.5t100.5 -41.5t101.5 41.5t41.5 101.5t-41.5 102t-101.5 42q-61 0 -101 -41.5t-40 -102.5zM264 1339q0 105 72 176.5t176 71.5t176 -71.5t72 -176.5q0 -104 -72 -175.5t-176 -71.5t-176 71.5t-72 175.5z" />
    <glyph glyph-name="cedilla" unicode="&#xb8;" 
d="M299 -424v88q80 -18 141.5 -27.5t104.5 -9.5q60 0 90.5 21.5t30.5 62.5q0 53 -32 76t-106 23q-21 0 -32.5 -0.5t-22.5 -1.5l57 276h74l-41 -190h15q107 0 163 -45.5t56 -131.5q0 -89 -63 -135.5t-185 -46.5q-47 0 -108 10t-142 31z" />
    <glyph glyph-name="hungarumlaut" unicode="&#x2dd;" 
d="M580 1112l168 348h155l-239 -348h-84zM322 1112l147 348h158l-221 -348h-84z" />
    <glyph glyph-name="ogonek" unicode="&#x2db;" 
d="M614 0q-69 -63 -102 -117.5t-33 -105.5q0 -45 22 -63.5t74 -18.5h80v-129h-77q-114 0 -169 40t-55 124q0 65 41 125t148 145h71z" />
    <glyph glyph-name="caron" unicode="&#x2c7;" 
d="M225 1444h107l180 -242l178 242h107l-197 -348h-178z" />
    <glyph glyph-name="Lslash" unicode="&#x141;" horiz-adv-x="858" 
d="M127 604l-117 -80v140l117 86v682h190v-576l277 195v-146l-277 -192v-244q0 -141 73 -217t210 -76h262v-176h-229q-255 0 -380.5 124t-125.5 376v104z" />
    <glyph glyph-name="lslash" unicode="&#x142;" horiz-adv-x="436" 
d="M129 0v627l-119 -80v115l119 83v687h178v-592l119 80v-117l-119 -80v-723h-178z" />
    <glyph glyph-name="Scaron" unicode="&#x160;" horiz-adv-x="1075" 
d="M72 0v190h489q117 0 177.5 46t60.5 135q0 69 -46.5 120.5t-174.5 116.5l-240 123q-132 67 -196 154.5t-64 199.5q0 161 117 254t321 93h414v-189h-477q-82 0 -130.5 -41.5t-48.5 -109.5q0 -62 42.5 -107.5t203.5 -128.5l209 -106q137 -70 202.5 -160t65.5 -209
q0 -181 -123.5 -281t-349.5 -100h-452zM252 1915h107l180 -242l178 242h107l-197 -348h-178z" />
    <glyph glyph-name="scaron" unicode="&#x161;" horiz-adv-x="887" 
d="M72 168h424q64 0 100.5 25t36.5 69q0 37 -27.5 63t-103.5 58l-168 68q-148 60 -204 122.5t-56 159.5q0 120 85 184t244 64h363v-164h-410q-50 0 -78 -22t-28 -62q0 -30 25 -54t83 -48l177 -72q165 -68 222.5 -131t57.5 -160q0 -136 -101 -202t-311 -66h-331v168z
M157 1444h107l180 -242l178 242h107l-197 -348h-178z" />
    <glyph glyph-name="Zcaron" unicode="&#x17d;" horiz-adv-x="1020" 
d="M985 180v-180h-743q-112 0 -160.5 37.5t-48.5 122.5q0 62 101 206l9 13l631 876h-661v177h645q112 0 160.5 -38t48.5 -122q0 -38 -21 -82.5t-88 -136.5l-629 -873h756zM223 1915h107l180 -242l178 242h107l-197 -348h-178z" />
    <glyph glyph-name="zcaron" unicode="&#x17e;" horiz-adv-x="854" 
d="M621 981q90 0 136 -30.5t46 -90.5q0 -32 -14 -63.5t-44 -63.5l-495 -565h557v-168h-588q-84 0 -129 34t-45 97q0 30 16 61.5t56 75.5l479 547h-512v166h537zM141 1444h107l180 -242l178 242h107l-197 -348h-178z" />
    <glyph glyph-name="brokenbar" unicode="&#xa6;" 
d="M588 408v-758h-150v758h150zM588 1432v-758h-150v758h150z" />
    <glyph glyph-name="Eth" unicode="&#xd0;" horiz-adv-x="1292" 
d="M395 174q9 0 24.5 -1t22.5 -1q267 0 427.5 150.5t160.5 396.5q0 252 -164 399.5t-446 147.5q-15 0 -34 -1t-56 -4v-454h303v-119h-303v-688h-191v688h-129v119h129v625h246q165 0 285 -25t204 -76q172 -104 261.5 -260.5t89.5 -353.5t-93.5 -358t-267.5 -263
q-82 -47 -196.5 -71.5t-255.5 -24.5h-17v174z" />
    <glyph glyph-name="eth" unicode="&#xf0;" horiz-adv-x="1114" 
d="M702 795q-34 19 -70 29t-75 10q-131 0 -222 -98.5t-91 -241.5q0 -144 91 -243t222 -99q134 0 220.5 96t86.5 246q0 58 -21.5 132.5t-62.5 159.5l-184 381l-256 -106l-33 80l248 106l-100 185h198l60 -117l252 106l36 -84l-241 -100l147 -291q78 -151 112 -258t34 -196
q0 -104 -37.5 -197.5t-108.5 -165.5q-70 -71 -160 -109t-190 -38t-190 37.5t-160 109.5t-108 165.5t-38 197.5q0 138 62.5 249t185.5 191q48 31 110.5 49t125.5 18q11 0 42 -2q12 -1 19 -2z" />
    <glyph glyph-name="Yacute" unicode="&#xdd;" horiz-adv-x="1110" 
d="M461 0v549q-177 45 -267 169t-90 324v390h191v-392q0 -157 67 -241t193 -84t193 84t67 241v392h191v-390q0 -200 -90 -324t-267 -169v-549h-188zM418 1567l209 348h178l-281 -348h-106z" />
    <glyph glyph-name="yacute" unicode="&#xfd;" horiz-adv-x="1049" 
d="M940 981v-535q0 -188 -82 -301.5t-248 -154.5v-426h-176v426q-166 41 -247 154t-81 302v535h175v-567q0 -116 68.5 -189t174.5 -73q107 0 174.5 73t67.5 189v567h174zM387 1096l209 348h178l-281 -348h-106z" />
    <glyph glyph-name="Thorn" unicode="&#xde;" horiz-adv-x="1110" 
d="M117 1432h190v-295q60 58 133.5 87t159.5 29q195 0 329 -134.5t134 -332.5t-136.5 -329t-344.5 -131h-203v180h178q142 0 226.5 78t84.5 207q0 121 -81.5 200.5t-206.5 79.5q-121 0 -197 -89.5t-76 -236.5v-745h-190v1432z" />
    <glyph glyph-name="thorn" unicode="&#xfe;" horiz-adv-x="1151" 
d="M104 1432h177v-553q59 58 141.5 89t175.5 31q213 0 352.5 -143.5t139.5 -363.5q0 -100 -34.5 -191t-99.5 -162q-68 -74 -159.5 -114.5t-190.5 -40.5q-73 0 -139.5 16.5t-126.5 50.5v189q60 -46 122 -68t126 -22q143 0 233 96t90 250q0 148 -89 243t-228 95t-226 -95.5
t-87 -249.5v-925h-177v1868z" />
    <glyph glyph-name="minus" unicode="&#x2212;" horiz-adv-x="1706" 
d="M1452 682v-141h-1198v141h1198z" />
    <glyph glyph-name="multiply" unicode="&#xd7;" horiz-adv-x="1706" 
d="M860 709l469 469l98 -99l-469 -469l469 -469l-98 -96l-469 467l-469 -467l-98 96l469 469l-469 469l98 99z" />
    <glyph glyph-name="onesuperior" unicode="&#xb9;" horiz-adv-x="735" 
d="M338 573v752h-170l39 107h260v-859h-129z" />
    <glyph glyph-name="twosuperior" unicode="&#xb2;" horiz-adv-x="735" 
d="M213 688h477v-115h-522q-55 0 -85 23.5t-30 65.5q0 22 17.5 47.5t50.5 50.5l338 246q52 39 76 80.5t24 91.5q0 69 -51 114t-129 45q-80 0 -131 -46.5t-51 -119.5q0 -72 46 -117t129 -55l-112 -79q-94 33 -144 97.5t-50 151.5q0 121 89.5 200t227.5 79q136 0 223.5 -75.5
t87.5 -192.5q0 -79 -43 -145.5t-139 -133.5z" />
    <glyph glyph-name="threesuperior" unicode="&#xb3;" horiz-adv-x="735" 
d="M86 1432h395q68 0 102.5 -22.5t34.5 -66.5q0 -24 -11 -47t-32 -41l-192 -163q143 -2 221 -68.5t78 -187.5q0 -117 -84 -190t-219 -73h-316v115h277q102 0 155.5 39.5t53.5 114.5q0 70 -50.5 110.5t-138.5 40.5h-167v80l296 252h-403v107z" />
    <glyph glyph-name="onequarter" unicode="&#xbc;" horiz-adv-x="1745" 
d="M1473 0v188h-312q-45 0 -65.5 17t-20.5 53q0 16 5.5 33t17.5 39l291 471h133l-314 -508h265v340l114 184v-524h139v-105h-139v-188h-114zM360 0l887 1432h137l-876 -1432h-148zM319 629v700h-161l39 101h245v-801h-123z" />
    <glyph glyph-name="onehalf" unicode="&#xbd;" horiz-adv-x="1745" 
d="M1247 106h455v-106h-498q-51 0 -79.5 21.5t-28.5 60.5q0 21 16 45t47 47l324 229q49 36 72.5 75.5t23.5 86.5q0 64 -49 106t-125 42q-75 0 -124.5 -44t-49.5 -110q0 -68 44.5 -111t123.5 -51l-107 -75q-90 32 -138 92.5t-48 142.5q0 112 86.5 185t218.5 73
q129 0 212 -69.5t83 -178.5q0 -74 -41 -136.5t-131 -125.5zM360 0l887 1432h137l-876 -1432h-148zM319 629v700h-161l39 101h245v-801h-123z" />
    <glyph glyph-name="threequarters" unicode="&#xbe;" horiz-adv-x="1745" 
d="M1473 0v188h-312q-45 0 -65.5 17t-20.5 53q0 16 5.5 33t17.5 39l291 471h133l-314 -508h265v340l114 184v-524h139v-105h-139v-188h-114zM360 0l887 1432h137l-876 -1432h-148zM82 1430h377q65 0 99 -21t34 -61q0 -23 -11.5 -44.5t-31.5 -37.5l-184 -154
q138 -2 212 -63.5t74 -174.5q0 -109 -80 -177t-209 -68h-301v106h265q95 0 146.5 38t51.5 108q0 65 -48 103t-132 38h-160v72l283 235h-385v101z" />
    <glyph glyph-name="franc" unicode="&#x20a3;" horiz-adv-x="1583" 
d="M117 0v934q0 252 125 375t381 123h204v-177h-237q-137 0 -211 -75.5t-74 -216.5v-160h522v-176h-522v-627h-188zM1039 0v981h162v-145q45 86 124 124.5t213 38.5h46v-170h-27q-181 0 -261.5 -86t-80.5 -280v-463h-176z" />
    <glyph glyph-name="Gbreve" unicode="&#x11e;" horiz-adv-x="1583" 
d="M829 817h687v-49q0 -118 -21 -217t-63 -184q-95 -185 -263.5 -288.5t-375.5 -103.5q-145 0 -277 56t-235 162q-105 106 -160 240.5t-55 283.5t55 283.5t160 240.5q103 105 239 160t293 55q161 0 300 -63t269 -195l-127 -129q-107 109 -216.5 161t-231.5 52
q-81 0 -153.5 -20t-133.5 -60q-124 -79 -192 -205.5t-68 -277.5q0 -114 40.5 -216t117.5 -184q74 -78 171.5 -120.5t203.5 -42.5q206 0 348.5 131t171.5 350h-484v180zM511 1876h89q7 -76 52.5 -110.5t140.5 -34.5t140.5 34.5t52.5 110.5h90q-11 -141 -79 -205.5t-204 -64.5
t-204.5 65.5t-77.5 204.5z" />
    <glyph glyph-name="gbreve" unicode="&#x11f;" horiz-adv-x="1151" 
d="M1047 57q0 -239 -134.5 -376.5t-367.5 -137.5q-71 0 -147.5 14t-161.5 42l38 168q88 -29 154.5 -42.5t120.5 -13.5q150 0 235.5 88t85.5 242v448q0 154 -87 249.5t-226 95.5q-138 0 -226.5 -94.5t-88.5 -243.5q0 -152 91 -249t232 -97q64 0 124.5 22t121.5 68v-189
q-60 -34 -126.5 -50.5t-139.5 -16.5q-70 0 -139 21.5t-125 60.5q-106 73 -162 182.5t-56 243.5q0 220 139 363.5t353 143.5q141 0 258 -71t180 -195q29 -56 41.5 -122.5t12.5 -198.5v-355zM293 1405h89q7 -76 52.5 -110.5t140.5 -34.5t140.5 34.5t52.5 110.5h90
q-11 -141 -79 -205.5t-204 -64.5t-204.5 65.5t-77.5 204.5z" />
    <glyph glyph-name="Idotaccent" unicode="&#x130;" horiz-adv-x="465" 
d="M137 0v1432h191v-1432h-191zM133 1741q0 39 30 68.5t70 29.5t70 -29.5t30 -68.5q0 -43 -29 -72t-71 -29t-71 29t-29 72z" />
    <glyph glyph-name="Scedilla" unicode="&#x15e;" horiz-adv-x="1075" 
d="M72 0v190h489q117 0 177.5 46t60.5 135q0 69 -46.5 120.5t-174.5 116.5l-240 123q-132 67 -196 154.5t-64 199.5q0 161 117 254t321 93h414v-189h-477q-82 0 -130.5 -41.5t-48.5 -109.5q0 -62 42.5 -107.5t203.5 -128.5l209 -106q137 -70 202.5 -160t65.5 -209
q0 -181 -123.5 -281t-349.5 -100h-452zM326 -424v88q80 -18 141.5 -27.5t104.5 -9.5q60 0 90.5 21.5t30.5 62.5q0 53 -32 76t-106 23q-21 0 -32.5 -0.5t-22.5 -1.5l57 276h74l-41 -190h15q107 0 163 -45.5t56 -131.5q0 -89 -63 -135.5t-185 -46.5q-47 0 -108 10t-142 31z
" />
    <glyph glyph-name="scedilla" unicode="&#x15f;" horiz-adv-x="887" 
d="M72 168h424q64 0 100.5 25t36.5 69q0 37 -27.5 63t-103.5 58l-168 68q-148 60 -204 122.5t-56 159.5q0 120 85 184t244 64h363v-164h-410q-50 0 -78 -22t-28 -62q0 -30 25 -54t83 -48l177 -72q165 -68 222.5 -131t57.5 -160q0 -136 -101 -202t-311 -66h-331v168z
M231 -424v88q80 -18 141.5 -27.5t104.5 -9.5q60 0 90.5 21.5t30.5 62.5q0 53 -32 76t-106 23q-21 0 -32.5 -0.5t-22.5 -1.5l57 276h74l-41 -190h15q107 0 163 -45.5t56 -131.5q0 -89 -63 -135.5t-185 -46.5q-47 0 -108 10t-142 31z" />
    <glyph glyph-name="Cacute" unicode="&#x106;" horiz-adv-x="1020" 
d="M958 1262q-13 1 -27 1.5t-42 0.5q-291 0 -459 -147.5t-168 -399.5t168 -399.5t459 -147.5q28 0 42.5 0.5t26.5 1.5v-172h-55q-159 0 -280 25t-203 75q-172 105 -262 262.5t-90 354.5q0 196 90 353t262 261q82 50 203 75.5t280 25.5h55v-170zM547 1567l209 348h178
l-281 -348h-106z" />
    <glyph glyph-name="cacute" unicode="&#x107;" horiz-adv-x="786" 
d="M725 813h-76q-185 0 -295 -88.5t-110 -235.5q0 -146 110.5 -234.5t294.5 -88.5h76v-166h-88q-263 0 -419.5 134.5t-156.5 357.5q0 120 56 224t159 175q72 48 153 69t208 21h88v-168zM367 1096l209 348h178l-281 -348h-106z" />
    <glyph glyph-name="Ccaron" unicode="&#x10c;" horiz-adv-x="1020" 
d="M958 1262q-13 1 -27 1.5t-42 0.5q-291 0 -459 -147.5t-168 -399.5t168 -399.5t459 -147.5q28 0 42.5 0.5t26.5 1.5v-172h-55q-159 0 -280 25t-203 75q-172 105 -262 262.5t-90 354.5q0 196 90 353t262 261q82 50 203 75.5t280 25.5h55v-170zM397 1915h107l180 -242
l178 242h107l-197 -348h-178z" />
    <glyph glyph-name="ccaron" unicode="&#x10d;" horiz-adv-x="786" 
d="M725 813h-76q-185 0 -295 -88.5t-110 -235.5q0 -146 110.5 -234.5t294.5 -88.5h76v-166h-88q-263 0 -419.5 134.5t-156.5 357.5q0 120 56 224t159 175q72 48 153 69t208 21h88v-168zM217 1444h107l180 -242l178 242h107l-197 -348h-178z" />
    <glyph glyph-name="dcroat" unicode="&#x111;" horiz-adv-x="1161" 
d="M1051 1432v-168h100v-97h-100v-673q0 -224 -140 -368t-352 -144q-213 0 -353 144.5t-140 365.5q0 212 140.5 358.5t342.5 146.5q74 0 139.5 -16.5t126.5 -50.5v-189q-64 47 -123.5 68.5t-122.5 21.5q-141 0 -232 -96.5t-91 -249.5q0 -149 88.5 -243.5t226.5 -94.5
t225.5 95.5t87.5 249.5v675h-327v97h327v168h177z" />
    <glyph glyph-name="sfthyphen" unicode="&#xad;" horiz-adv-x="676" 
d="M111 403v181h452v-181h-452z" />
    <glyph glyph-name="periodcentered" unicode="&#x2219;" horiz-adv-x="557" 
d="M160 729q0 50 34 84.5t85 34.5q50 0 84 -34.5t34 -84.5q0 -49 -34.5 -83t-83.5 -34q-50 0 -84.5 34t-34.5 83z" />
    <glyph glyph-name="euro" horiz-adv-x="1114" 
d="M1069 0h-76q-343 0 -546 150t-244 434h-187l23 80h158q0 7 -1 25t-1 28q0 15 0.5 33t2.5 49h-182l23 80h170q50 271 251.5 412t538.5 141h70v-172h-86q-248 0 -391.5 -95.5t-183.5 -285.5h575l-22 -80h-570q0 -8 -2 -26q-4 -37 -4 -56q0 -23 0.5 -33.5t1.5 -19.5h539
l-23 -80h-502q37 -198 189.5 -305t396.5 -107h82v-172z" />
    <glyph glyph-name="euro" unicode="&#x20ac;" horiz-adv-x="1114" 
d="M1069 0h-76q-343 0 -546 150t-244 434h-187l23 80h158q0 7 -1 25t-1 28q0 15 0.5 33t2.5 49h-182l23 80h170q50 271 251.5 412t538.5 141h70v-172h-86q-248 0 -391.5 -95.5t-183.5 -285.5h575l-22 -80h-570q0 -8 -2 -26q-4 -37 -4 -56q0 -23 0.5 -33.5t1.5 -19.5h539
l-23 -80h-502q37 -198 189.5 -305t396.5 -107h82v-172z" />
    </font>
</defs>
</svg>
